<?xml version="1.0" encoding="utf-8"?>
<!-- Generator: Adobe Illustrator 24.2.0, SVG Export Plug-In . SVG Version: 6.00 Build 0)  -->
<svg version="1.1" xmlns="http://www.w3.org/2000/svg" xmlns:xlink="http://www.w3.org/1999/xlink" x="0px" y="0px"
	 viewBox="0 0 435.1 423.3" style="enable-background:new 0 0 435.1 423.3;" xml:space="preserve">
<style type="text/css">
	.st0{fill:url(#SVGID_1_);}
	.st1{opacity:0.3;}
	.st2{fill:url(#SVGID_2_);}
	.st3{opacity:0.15;}
	.st4{fill:url(#SVGID_3_);}
	
		.st5{fill:none;stroke:#FFFFFF;stroke-width:1.5;stroke-linecap:round;stroke-linejoin:round;stroke-miterlimit:10;stroke-dasharray:0.1,7;}
	.st6{fill:url(#SVGID_4_);}
	.st7{fill:url(#SVGID_5_);}
	.st8{fill:none;stroke:#FFFFFF;stroke-width:0.75;stroke-miterlimit:10;}
	.st9{fill:#FFFFFF;}
	.st10{fill:url(#SVGID_6_);}
	.st11{fill:url(#SVGID_7_);}
	.st12{font-family:'HelveticaNeueCyr-Bold';}
	.st13{font-size:58.7935px;}
	.st14{fill:url(#SVGID_8_);}
	.st15{opacity:0.2;}
	.st16{fill:url(#SVGID_9_);}
	.st17{fill:none;stroke:#FFFFFF;stroke-width:2;stroke-linecap:round;stroke-linejoin:round;stroke-dasharray:9.917200e-02,7.9338;}
	.st18{fill:url(#SVGID_10_);}
	.st19{fill:url(#SVGID_11_);}
	.st20{fill:none;stroke:#FAF0C6;stroke-width:0.75;stroke-linecap:round;stroke-linejoin:round;stroke-miterlimit:10;}
	.st21{fill:none;stroke:#FAF0C6;stroke-width:2;stroke-linecap:round;stroke-linejoin:round;stroke-miterlimit:10;}
	.st22{opacity:0.25;}
	.st23{fill:url(#SVGID_12_);}
	.st24{fill:url(#SVGID_13_);}
	.st25{fill:url(#SVGID_14_);}
	.st26{fill:url(#SVGID_15_);}
	.st27{fill:url(#SVGID_16_);}
	.st28{fill:url(#SVGID_17_);}
	.st29{fill:url(#SVGID_18_);}
	.st30{fill:url(#SVGID_19_);}
	.st31{fill:none;stroke:#FFFFFF;stroke-linecap:round;stroke-linejoin:round;stroke-miterlimit:10;stroke-dasharray:0.1,5;}
	.st32{fill:url(#SVGID_20_);}
	.st33{fill:url(#SVGID_21_);}
	.st34{fill:#FAE591;}
	.st35{fill:url(#SVGID_22_);}
	.st36{fill:url(#SVGID_23_);}
	.st37{fill:url(#SVGID_24_);}
	.st38{fill:url(#SVGID_25_);}
	.st39{fill:url(#SVGID_26_);}
	.st40{fill:none;stroke:url(#SVGID_27_);stroke-width:1.959;stroke-miterlimit:10;}
	.st41{fill:url(#SVGID_28_);}
	.st42{fill:url(#SVGID_29_);}
	.st43{fill:url(#SVGID_30_);}
	.st44{fill:url(#SVGID_31_);}
	.st45{fill:url(#SVGID_32_);}
	.st46{fill:url(#SVGID_33_);}
	.st47{fill:url(#SVGID_34_);}
	.st48{fill:url(#SVGID_35_);}
	.st49{fill:url(#SVGID_36_);}
	.st50{fill:url(#SVGID_37_);}
	.st51{clip-path:url(#SVGID_39_);}
	.st52{fill:none;stroke:#FFFFFF;stroke-width:1.0082;stroke-miterlimit:10;}
	.st53{fill:url(#SVGID_40_);}
	.st54{fill:url(#SVGID_41_);}
	.st55{fill:url(#SVGID_42_);}
	.st56{fill:url(#SVGID_43_);}
	.st57{fill:url(#SVGID_44_);}
	.st58{fill:url(#SVGID_45_);}
	.st59{fill:#4F4F4F;}
	.st60{fill:#5B5B5B;}
</style>
<g id="BACKGROUND">
</g>
<g id="OBJECTS">
	<g>
		<g>
			<g>
				<linearGradient id="SVGID_1_" gradientUnits="userSpaceOnUse" x1="125.97" y1="53.9011" x2="315.289" y2="334.7589">
					<stop  offset="0" style="stop-color:#D2D2D2"/>
					<stop  offset="0.1907" style="stop-color:#ACACAC"/>
					<stop  offset="0.3196" style="stop-color:#E2E2E2"/>
					<stop  offset="0.4691" style="stop-color:#EEEEEE"/>
					<stop  offset="0.6134" style="stop-color:#8E8E8E"/>
					<stop  offset="0.799" style="stop-color:#ACACAC"/>
					<stop  offset="1" style="stop-color:#D2D2D2"/>
				</linearGradient>
				<polygon class="st0" points="219.3,27.6 244.1,35.7 270.2,35.7 291.3,51 316.1,59.1 331.5,80.2 352.6,95.5 360.6,120.3 
					376,141.4 376,167.5 384,192.3 376,217.2 376,243.3 360.6,264.4 352.6,289.2 331.5,304.5 316.1,325.6 291.3,333.7 270.2,349 
					244.1,349 219.3,357.1 194.5,349 168.4,349 147.3,333.7 122.4,325.6 107.1,304.5 86,289.2 77.9,264.4 62.6,243.3 62.6,217.2 
					54.5,192.3 62.6,167.5 62.6,141.4 77.9,120.3 86,95.5 107.1,80.2 122.4,59.1 147.3,51 168.4,35.7 194.5,35.7 				"/>
				<path class="st3" d="M376,167.5v-26.1l-15.3-21.1l-8.1-24.8l-21.1-15.3l-15.3-21.1L291.3,51l-21.1-15.3h-26.1l-24.8-8.1
					l-24.8,8.1h-26.1L147.3,51l-24.8,8.1l-15.3,21.1L86,95.5l-8.1,24.8l-15.3,21.1v26.1l-8.1,24.8l8.1,24.8v26.1l15.3,21.1l8.1,24.8
					l21.1,15.3l15.3,21.1l24.8,8.1l21.1,15.3h26.1l24.8,8.1l24.8-8.1h26.1l21.1-15.3l24.8-8.1l15.3-21.1l21.1-15.3l8.1-24.8
					l15.3-21.1v-26.1l8.1-24.8L376,167.5z M372.4,216.6v25.5l-15,20.6l-7.9,24.2l-20.6,15l-15,20.6l-24.2,7.9l-20.6,15h-25.5
					l-24.2,7.9l-24.2-7.9h-25.5l-20.6-15l-24.2-7.9l-15-20.6l-20.6-15l-7.9-24.2l-15-20.6v-25.5l-7.9-24.2l7.9-24.2v-25.5l15-20.6
					l7.9-24.2l20.6-15l15-20.6l24.2-7.9l20.6-15H195l24.2-7.9l24.2,7.9H269l20.6,15l24.2,7.9l15,20.6l20.6,15l7.9,24.2l15,20.6v25.5
					l7.9,24.2L372.4,216.6z"/>
			</g>
			<linearGradient id="SVGID_2_" gradientUnits="userSpaceOnUse" x1="219.2886" y1="60.4363" x2="219.2886" y2="327.4261">
				<stop  offset="0" style="stop-color:#8D8D8D"/>
				<stop  offset="0.1804" style="stop-color:#ACACAC"/>
				<stop  offset="0.3196" style="stop-color:#E2E2E2"/>
				<stop  offset="0.4691" style="stop-color:#EEEEEE"/>
				<stop  offset="0.6134" style="stop-color:#8E8E8E"/>
			</linearGradient>
			<circle class="st2" cx="219.3" cy="192.3" r="144"/>
			<path class="st3" d="M219.3,48.3c-79.6,0-144,64.5-144,144s64.5,144,144,144s144-64.5,144-144S298.8,48.3,219.3,48.3z
				 M219.3,332.7c-77.5,0-140.4-62.8-140.4-140.4S141.8,52,219.3,52s140.4,62.8,140.4,140.4S296.8,332.7,219.3,332.7z"/>
			
				<ellipse transform="matrix(0.7071 -0.7071 0.7071 0.7071 -71.7774 211.3958)" class="st5" cx="219.3" cy="192.3" rx="131.4" ry="131.4"/>
			
				<ellipse transform="matrix(0.7071 -0.7071 0.7071 0.7071 -71.7774 211.3958)" class="st3" cx="219.3" cy="192.3" rx="123.1" ry="123.1"/>
			<linearGradient id="SVGID_3_" gradientUnits="userSpaceOnUse" x1="136.9136" y1="109.9658" x2="314.2407" y2="287.2929">
				<stop  offset="0" style="stop-color:#393939"/>
				<stop  offset="0.1804" style="stop-color:#555555"/>
				<stop  offset="0.6134" style="stop-color:#393939"/>
			</linearGradient>
			<circle class="st4" cx="219.3" cy="192.3" r="118.5"/>
			<linearGradient id="SVGID_4_" gradientUnits="userSpaceOnUse" x1="194.922" y1="112.7143" x2="253.1739" y2="303.0731">
				<stop  offset="0" style="stop-color:#D2D2D2"/>
				<stop  offset="0.1907" style="stop-color:#ACACAC"/>
				<stop  offset="0.3196" style="stop-color:#E2E2E2"/>
				<stop  offset="0.4691" style="stop-color:#EEEEEE"/>
				<stop  offset="0.6134" style="stop-color:#8E8E8E"/>
				<stop  offset="0.799" style="stop-color:#ACACAC"/>
				<stop  offset="1" style="stop-color:#D2D2D2"/>
			</linearGradient>
			<circle class="st6" cx="219.3" cy="192.3" r="80.1"/>
			<polygon class="st3" points="376,243.3 376,217.2 384,192.3 376,167.5 376,145.3 62.6,145.3 62.6,167.5 54.5,192.3 62.6,217.2 
				62.6,243.3 64.8,246.3 373.8,246.3 			"/>
		</g>
		<g>
			<g>
				<path class="st8" d="M317.3,181.4c-2.4-22.2-12.3-42.2-26.9-57.4"/>
				<path class="st8" d="M148.2,124c-14.7,15.3-24.5,35.2-26.9,57.4"/>
				<g>
					<g>
						<g>
							<path d="M156.6,117.5c-3.2-3.4-2.5-9,2.2-12.7c2.3-1.8,4.9-2.6,7.2-2.2c-0.2,0.6-0.3,1-0.5,1.6c-2-0.2-4,0.4-5.8,1.8
								c-3.7,2.9-4.4,7.4-1.8,10.2c2.6,2.8,6.7,2.7,9.9,0.3c1.5-1.2,2.6-2.6,3-4.5c0.6,0.1,0.9,0.1,1.6,0.3
								c-0.4,2.1-1.7,3.9-3.7,5.4C164.8,120.7,159.8,120.8,156.6,117.5z"/>
							<path d="M186.8,105.7c0.2,0.5,0.3,0.8,0.6,1.3c-4.3,1.7-6.5,2.8-10.5,5.1c-3.3-5.4-4.9-8.2-8.3-13.8c4.7-2.8,7.1-4,12.1-6.1
								c0.2,0.6,0.4,0.8,0.6,1.4c-4.2,1.7-6.2,2.7-10.2,4.9c1.2,2,1.7,3,2.9,5c3.3-1.8,5-2.7,8.5-4.2c0.2,0.5,0.4,0.8,0.6,1.3
								c-3.4,1.5-5.1,2.3-8.4,4.1c1.2,2.1,1.8,3.1,2.9,5.2C181.2,108.1,183.1,107.2,186.8,105.7z"/>
							<path d="M202.2,102.6c-1.9-1.7-2.9-2.5-5-4.2c-0.4,0.2-0.9,0.3-1.4,0.4c-1.8,0.5-2.7,0.8-4.5,1.3c0.7,1.9,1,2.9,1.6,4.8
								c-0.7,0.2-1,0.3-1.7,0.6c-2.2-6-3.3-9-5.5-15.3c2.8-1,4.2-1.4,7.1-2.2c4.9-1.3,8.3,0.3,9,3.8c0.5,2.5-0.7,4.5-3,5.8
								c2.2,1.8,3.3,2.7,5.3,4.6C203.3,102.4,202.9,102.4,202.2,102.6z M199.9,92.2c-0.5-2.6-2.9-3.7-6.7-2.7c-2,0.5-3,0.8-5,1.5
								c1.1,3.1,1.6,4.7,2.6,7.8c1.8-0.6,2.7-0.9,4.6-1.4C198.9,96.5,200.4,94.7,199.9,92.2z"/>
							<path d="M209.4,86.6c-2.7,0.3-4.1,0.5-6.8,0.9c-0.1-0.6-0.2-0.9-0.3-1.5c6.4-1.1,9.6-1.4,16.1-1.4c0,0.6,0,0.9,0,1.5
								c-2.8,0-4.1,0.1-6.9,0.3c0.5,6,0.7,8.9,1.2,14.7c-0.7,0.1-1.1,0.1-1.8,0.2C210.3,95.5,210,92.6,209.4,86.6z"/>
							<path d="M221.7,84.6c0.8,0,1.3,0,2.1,0.1c-0.3,6.6-0.5,9.9-0.8,16.3c-0.7,0-1.1,0-1.8-0.1C221.5,94.5,221.6,91.3,221.7,84.6z
								"/>
							<path d="M232.2,86.9c-0.3,2.6-0.5,3.9-0.9,6.4c3.8,0.5,5.6,0.8,9.3,1.7c-0.1,0.6-0.2,0.9-0.4,1.4c-3.6-0.8-5.5-1.2-9.2-1.6
								c-0.4,2.7-0.6,4.1-0.9,6.8c-0.7-0.1-1-0.1-1.7-0.2c0.7-6.4,1.1-9.6,1.8-16.2c5.4,0.6,8.1,1.1,13.4,2.4
								c-0.2,0.6-0.2,0.9-0.4,1.5C239,87.9,236.7,87.5,232.2,86.9z"/>
							<path d="M248,88.7c0.8,0.2,1.2,0.4,2,0.6c-2.1,6.3-3.1,9.4-5.1,15.4c-0.7-0.2-1-0.3-1.7-0.5C245.1,98.2,246,95.1,248,88.7z"
								/>
							<path d="M261.3,110.3c-0.3,0.5-0.4,0.8-0.7,1.3c-4.1-2.3-6.2-3.3-10.6-5c2.4-5.9,3.6-8.9,6.1-15.1c5.1,2,7.5,3.2,12.3,5.8
								c-0.3,0.5-0.4,0.8-0.7,1.3c-3.9-2.2-6-3.2-10.2-5c-0.9,2.2-1.4,3.2-2.3,5.3c3.5,1.5,5.2,2.3,8.6,4.1
								c-0.3,0.5-0.4,0.8-0.7,1.3c-3.3-1.8-5-2.6-8.4-4c-0.9,2.2-1.4,3.3-2.3,5.5C256,107.4,257.8,108.3,261.3,110.3z"/>
							<path d="M272.9,100.1c2.7,1.7,4,2.7,6.6,4.6c5,3.9,5.7,9.3,2.5,12.7c-3.2,3.4-8,3.2-12.2,0c-2.2-1.6-3.3-2.4-5.6-3.8
								C267.6,108.3,269.3,105.6,272.9,100.1z M270.5,116.2c3.6,2.7,7.5,2.7,10.1-0.1c2.6-2.8,2-7.2-2.1-10.3
								c-1.8-1.4-2.8-2.1-4.7-3.4c-3,4.4-4.5,6.6-7.4,10.9C268.1,114.5,268.9,115,270.5,116.2z"/>
						</g>
					</g>
					<g>
						<g>
							<path class="st9" d="M156.6,117.5c-3.2-3.4-2.5-9,2.2-12.7c2.3-1.8,4.9-2.6,7.2-2.2c-0.2,0.6-0.3,1-0.5,1.6
								c-2-0.2-4,0.4-5.8,1.8c-3.7,2.9-4.4,7.4-1.8,10.2c2.6,2.8,6.7,2.7,9.9,0.3c1.5-1.2,2.6-2.6,3-4.5c0.6,0.1,0.9,0.1,1.6,0.3
								c-0.4,2.1-1.7,3.9-3.7,5.4C164.8,120.7,159.8,120.8,156.6,117.5z"/>
							<path class="st9" d="M186.8,105.7c0.2,0.5,0.3,0.8,0.6,1.3c-4.3,1.7-6.5,2.8-10.5,5.1c-3.3-5.4-4.9-8.2-8.3-13.8
								c4.7-2.8,7.1-4,12.1-6.1c0.2,0.6,0.4,0.8,0.6,1.4c-4.2,1.7-6.2,2.7-10.2,4.9c1.2,2,1.7,3,2.9,5c3.3-1.8,5-2.7,8.5-4.2
								c0.2,0.5,0.4,0.8,0.6,1.3c-3.4,1.5-5.1,2.3-8.4,4.1c1.2,2.1,1.8,3.1,2.9,5.2C181.2,108.1,183.1,107.2,186.8,105.7z"/>
							<path class="st9" d="M202.2,102.6c-1.9-1.7-2.9-2.5-5-4.2c-0.4,0.2-0.9,0.3-1.4,0.4c-1.8,0.5-2.7,0.8-4.5,1.3
								c0.7,1.9,1,2.9,1.6,4.8c-0.7,0.2-1,0.3-1.7,0.6c-2.2-6-3.3-9-5.5-15.3c2.8-1,4.2-1.4,7.1-2.2c4.9-1.3,8.3,0.3,9,3.8
								c0.5,2.5-0.7,4.5-3,5.8c2.2,1.8,3.3,2.7,5.3,4.6C203.3,102.4,202.9,102.4,202.2,102.6z M199.9,92.2c-0.5-2.6-2.9-3.7-6.7-2.7
								c-2,0.5-3,0.8-5,1.5c1.1,3.1,1.6,4.7,2.6,7.8c1.8-0.6,2.7-0.9,4.6-1.4C198.9,96.5,200.4,94.7,199.9,92.2z"/>
							<path class="st9" d="M209.4,86.6c-2.7,0.3-4.1,0.5-6.8,0.9c-0.1-0.6-0.2-0.9-0.3-1.5c6.4-1.1,9.6-1.4,16.1-1.4
								c0,0.6,0,0.9,0,1.5c-2.8,0-4.1,0.1-6.9,0.3c0.5,6,0.7,8.9,1.2,14.7c-0.7,0.1-1.1,0.1-1.8,0.2C210.3,95.5,210,92.6,209.4,86.6
								z"/>
							<path class="st9" d="M221.7,84.6c0.8,0,1.3,0,2.1,0.1c-0.3,6.6-0.5,9.9-0.8,16.3c-0.7,0-1.1,0-1.8-0.1
								C221.5,94.5,221.6,91.3,221.7,84.6z"/>
							<path class="st9" d="M232.2,86.9c-0.3,2.6-0.5,3.9-0.9,6.4c3.8,0.5,5.6,0.8,9.3,1.7c-0.1,0.6-0.2,0.9-0.4,1.4
								c-3.6-0.8-5.5-1.2-9.2-1.6c-0.4,2.7-0.6,4.1-0.9,6.8c-0.7-0.1-1-0.1-1.7-0.2c0.7-6.4,1.1-9.6,1.8-16.2
								c5.4,0.6,8.1,1.1,13.4,2.4c-0.2,0.6-0.2,0.9-0.4,1.5C239,87.9,236.7,87.5,232.2,86.9z"/>
							<path class="st9" d="M248,88.7c0.8,0.2,1.2,0.4,2,0.6c-2.1,6.3-3.1,9.4-5.1,15.4c-0.7-0.2-1-0.3-1.7-0.5
								C245.1,98.2,246,95.1,248,88.7z"/>
							<path class="st9" d="M261.3,110.3c-0.3,0.5-0.4,0.8-0.7,1.3c-4.1-2.3-6.2-3.3-10.6-5c2.4-5.9,3.6-8.9,6.1-15.1
								c5.1,2,7.5,3.2,12.3,5.8c-0.3,0.5-0.4,0.8-0.7,1.3c-3.9-2.2-6-3.2-10.2-5c-0.9,2.2-1.4,3.2-2.3,5.3c3.5,1.5,5.2,2.3,8.6,4.1
								c-0.3,0.5-0.4,0.8-0.7,1.3c-3.3-1.8-5-2.6-8.4-4c-0.9,2.2-1.4,3.3-2.3,5.5C256,107.4,257.8,108.3,261.3,110.3z"/>
							<path class="st9" d="M272.9,100.1c2.7,1.7,4,2.7,6.6,4.6c5,3.9,5.7,9.3,2.5,12.7c-3.2,3.4-8,3.2-12.2,0
								c-2.2-1.6-3.3-2.4-5.6-3.8C267.6,108.3,269.3,105.6,272.9,100.1z M270.5,116.2c3.6,2.7,7.5,2.7,10.1-0.1
								c2.6-2.8,2-7.2-2.1-10.3c-1.8-1.4-2.8-2.1-4.7-3.4c-3,4.4-4.5,6.6-7.4,10.9C268.1,114.5,268.9,115,270.5,116.2z"/>
						</g>
					</g>
				</g>
			</g>
			<g>
				<g>
					<path class="st9" d="M147.4,250.6c-0.5,1.1-1,2.2-1.5,3.4c0.7,1.1,1.4,2.1,2.1,3.1l-3.8-0.3l-2.3,2.9c-0.4-1.2-0.7-2.5-1-3.8
						l-3.5-1.7l3.3-1.7c0.1-1.2,0.3-2.5,0.4-3.7c0.8,0.9,1.7,1.8,2.7,2.7C145,251.2,146.2,250.9,147.4,250.6z"/>
				</g>
				<g>
					<path class="st9" d="M160.2,263.7c-0.3,1.2-0.6,2.4-0.8,3.6l2.6,2.7l-3.7,0.4l-1.7,3.3c-0.6-1.2-1.2-2.3-1.7-3.5l-3.8-1
						l2.9-2.3c-0.1-1.3-0.3-2.5-0.3-3.7c1,0.7,2.1,1.4,3.2,2.1C158,264.6,159.1,264.1,160.2,263.7z"/>
				</g>
				<g>
					<path class="st9" d="M175.4,273.9c0,1.2-0.1,2.4-0.1,3.6c1,0.7,2,1.5,3.1,2.2c-1.2,0.4-2.4,0.7-3.6,1.1l-1,3.5l-2.4-3.1
						c-1.3,0-2.6-0.2-3.9-0.3l2.4-2.8l-1.1-3.6l3.5,1.4C173.4,275.3,174.4,274.6,175.4,273.9z"/>
				</g>
				<g>
					<path class="st9" d="M192.2,280.9c0.2,1.2,0.4,2.4,0.6,3.6c1.1,0.5,2.3,1.1,3.5,1.5c-1.1,0.6-2.2,1.2-3.3,1.8l-0.3,3.7
						l-2.9-2.6c-1.3,0.2-2.6,0.4-3.9,0.5l1.8-3.2l-1.7-3.4c1.2,0.3,2.5,0.5,3.7,0.8C190.6,282.7,191.4,281.8,192.2,280.9z"/>
				</g>
				<g>
					<path class="st9" d="M210.2,284.5c0.4,1.1,0.9,2.3,1.3,3.4c1.2,0.3,2.5,0.5,3.7,0.7c-0.9,0.8-1.9,1.7-2.9,2.4l0.4,3.7l-3.4-2
						c-1.2,0.4-2.5,0.9-3.7,1.3l1.1-3.5c-0.8-1-1.6-2-2.4-3c1.3,0,2.5,0.1,3.8,0C208.8,286.5,209.5,285.5,210.2,284.5z"/>
				</g>
				<g>
					<path class="st9" d="M228.4,284.5c0.6,1,1.3,2.1,2,3.1c1.3,0.1,2.5,0,3.8,0c-0.8,1-1.5,2-2.4,3l1.1,3.5
						c-1.3-0.4-2.5-0.9-3.7-1.3l-3.4,2l0.4-3.7c-1-0.7-1.9-1.6-2.9-2.4c1.2-0.2,2.5-0.4,3.7-0.7C227.6,286.7,228,285.6,228.4,284.5z
						"/>
				</g>
				<g>
					<path class="st9" d="M246.3,280.9c0.8,0.9,1.7,1.8,2.6,2.7c1.2-0.2,2.5-0.5,3.7-0.8l-1.7,3.4l1.8,3.2c-1.3-0.1-2.6-0.3-3.9-0.5
						l-2.9,2.6l-0.3-3.7c-1.1-0.5-2.2-1.1-3.3-1.8c1.2-0.4,2.3-1,3.5-1.5C245.9,283.3,246.1,282.1,246.3,280.9z"/>
				</g>
				<g>
					<path class="st9" d="M263.2,273.9c1,0.7,2,1.4,3,2.1l3.5-1.4l-1.1,3.6l2.4,2.8c-1.3,0.1-2.6,0.3-3.9,0.3l-2.4,3.1l-1-3.5
						c-1.2-0.3-2.4-0.7-3.6-1.1c1.1-0.7,2.1-1.4,3.1-2.2C263.3,276.3,263.2,275.1,263.2,273.9z"/>
				</g>
				<g>
					<path class="st9" d="M278.3,263.7c1.1,0.5,2.2,1,3.4,1.4c1-0.7,2.1-1.4,3.2-2.1c-0.1,1.2-0.2,2.5-0.3,3.7l2.9,2.3l-3.8,1
						c-0.5,1.2-1.1,2.3-1.7,3.5l-1.7-3.3l-3.7-0.4l2.6-2.7C278.9,266,278.6,264.9,278.3,263.7z"/>
				</g>
				<g>
					<path class="st9" d="M291.2,250.6c1.2,0.3,2.4,0.5,3.6,0.8c0.9-0.9,1.8-1.7,2.7-2.7c0.2,1.2,0.3,2.5,0.4,3.7l3.3,1.7l-3.5,1.7
						c-0.3,1.3-0.6,2.6-1,3.8l-2.3-2.9l-3.8,0.3c0.7-1.1,1.4-2.1,2.1-3.1C292.2,252.9,291.7,251.8,291.2,250.6z"/>
				</g>
			</g>
		</g>
		<g>
			<g>
				<linearGradient id="SVGID_5_" gradientUnits="userSpaceOnUse" x1="33.4241" y1="192.3409" x2="405.1531" y2="192.3409">
					<stop  offset="0" style="stop-color:#D2D2D2"/>
					<stop  offset="0.1907" style="stop-color:#ACACAC"/>
					<stop  offset="0.3196" style="stop-color:#E2E2E2"/>
					<stop  offset="0.4691" style="stop-color:#EEEEEE"/>
					<stop  offset="0.6134" style="stop-color:#8E8E8E"/>
					<stop  offset="0.799" style="stop-color:#ACACAC"/>
					<stop  offset="1" style="stop-color:#D2D2D2"/>
				</linearGradient>
				<polygon class="st7" points="405.2,234 33.4,234 54.5,192.3 33.4,150.7 405.2,150.7 384,192.3 				"/>
				<linearGradient id="SVGID_6_" gradientUnits="userSpaceOnUse" x1="42.0753" y1="192.3409" x2="396.5019" y2="192.3409">
					<stop  offset="0" style="stop-color:#393939"/>
					<stop  offset="0.1804" style="stop-color:#555555"/>
					<stop  offset="0.6134" style="stop-color:#393939"/>
				</linearGradient>
				<polygon class="st10" points="396.5,228.7 42.1,228.7 60.5,192.3 42.1,156 396.5,156 378.1,192.3 				"/>
				<g>
					<polygon class="st9" points="77.4,181.3 80.6,187.9 87.9,188.9 82.6,194 83.8,201.3 77.4,197.9 70.9,201.3 72.1,194 
						66.9,188.9 74.1,187.9 					"/>
					<polygon class="st9" points="361.2,181.3 364.5,187.9 371.7,188.9 366.5,194 367.7,201.3 361.2,197.9 354.7,201.3 356,194 
						350.7,188.9 358,187.9 					"/>
				</g>
			</g>
			<text transform="matrix(1 0 0 1 95.1152 213.9438)" class="st9 st12 st13">ISO 9001</text>
		</g>
	</g>
</g>
</svg>
