<?xml version="1.0" encoding="utf-8"?>
<!-- Generator: Adobe Illustrator 24.2.0, SVG Export Plug-In . SVG Version: 6.00 Build 0)  -->
<svg version="1.1" id="Layer_1" xmlns="http://www.w3.org/2000/svg" xmlns:xlink="http://www.w3.org/1999/xlink" x="0px" y="0px"
	 viewBox="0 0 372.8 228.9" style="enable-background:new 0 0 372.8 228.9;" xml:space="preserve">
<style type="text/css">
	.st0{fill:white;}
	.st1{fill:#5ED8BB;}
	.st2{fill:none;}
</style>
<g>
	<path class="st0" d="M20.2,183V82.6h71.3v20.1H41.7V183H20.2z"/>
</g>
<g id="OBJECTS">
	<g>
		<path class="st0" d="M177.1,164.4l-1.1-54.5c-9.8-1.9-18.3-12.1-18.3-22.4c0.2-2,0.5-4,0.9-6l-2.9,1v81.8h-41.4V82.5H93.1v102.3
			h79.6v20.4H193v-40.9H177.1z"/>
		<path class="st0" d="M204.2,82.9c0.2,1.2,2,3.7,2,5c0,6.8-4.9,11.5-9.8,15.4l27-0.3v81.8h22.7V103h35.6V82.5L204.2,82.9z"/>
		<path class="st0" d="M282,82.5v66.8l49.6-66.8H353v102.3h-21.5v-67.4L282,184.8h-21.5V82.5H282z"/>
	</g>
	<path class="st1" d="M219.2,82.5c-1.7-21-20.1-36.7-41.1-35c-21,1.7-36.7,20.1-35,41.1c1.5,18.3,15.7,32.9,34,34.9
		c1.4,0.1,2.7,0.2,4.1,0.2c21,0,38.1-17,38.1-38.1c0,0,0,0,0-0.1C219.4,84.6,219.3,83.5,219.2,82.5z M181.3,107.5
		c-11.7,0-21.2-9.5-21.2-21.2c0,0,0,0,0,0c0-1.2,0.1-2.5,0.3-3.7c2-11.5,13.1-19.2,24.6-17.2c8.8,1.6,15.6,8.4,17.2,17.2
		c0.2,1.2,0.3,2.5,0.3,3.7C202.5,98,193,107.5,181.3,107.5z"/>
	<g>
		<line class="st2" x1="198.7" y1="54.4" x2="227.7" y2="12.5"/>
		
			<rect x="187.7" y="22.5" transform="matrix(0.5688 -0.8225 0.8225 0.5688 64.4075 189.7639)" class="st1" width="50.9" height="22"/>
	</g>
</g>
</svg>
