<svg xmlns="http://www.w3.org/2000/svg" xmlns:xlink="http://www.w3.org/1999/xlink" width="450.78261" height="423.34504" viewBox="0 0 450.78261 423.34504">
  <defs>
    <style>
      .cls-1 {
        fill: url(#linear-gradient);
      }

      .cls-2 {
        fill: url(#linear-gradient-2);
      }

      .cls-3 {
        fill: #c9c9c9;
      }
    </style>
    <linearGradient id="linear-gradient" x1="72.8729" y1="213.94377" x2="327.68882" y2="213.94377" gradientUnits="userSpaceOnUse">
      <stop offset="0" stop-color="#acacac"/>
      <stop offset="0" stop-color="#d2d2d2"/>
      <stop offset="0.19467" stop-color="#e2e2e2"/>
      <stop offset="0.5018" stop-color="#eee"/>
      <stop offset="0.59325" stop-color="#e8e8e8"/>
      <stop offset="0.70954" stop-color="#d9d9d9"/>
      <stop offset="0.83873" stop-color="#bfbfbf"/>
      <stop offset="0.91488" stop-color="#acacac"/>
      <stop offset="1" stop-color="#8e8e8e"/>
      <stop offset="1" stop-color="#d2d2d2"/>
    </linearGradient>
    <linearGradient id="linear-gradient-2" x1="298.07335" y1="211.60809" x2="357.30429" y2="211.60809" gradientUnits="userSpaceOnUse">
      <stop offset="0" stop-color="#d2d2d2"/>
      <stop offset="0.40249" stop-color="#acacac"/>
      <stop offset="1" stop-color="#e2e2e2"/>
      <stop offset="1" stop-color="#d2d2d2"/>
    </linearGradient>
  </defs>
  <g id="OBJECTS">
    <g>
      <path class="cls-1" d="M327.64353,256.08267c-.005-.78-.1-1.555-.16-2.46008-2.39511.475-4.47013.98-6.57519,1.295-10.76039,1.59506-21.48075,3.70015-32.3012,4.56016a88.48764,88.48764,0,0,1-33.39122-3.37011c-20.3457-6.30522-30.24107-20.72075-31.26613-40.51644-.24-4.66518.83511-9.51536,1.96015-14.12053,3.4701-14.2105,11.76544-24.75089,25.17583-30.84111,8.58539-3.90013,17.8157-5.41019,27.191-5.57518a102.45718,102.45718,0,0,1,14.09547.97q11.888,1.44754,23.70581,3.37512c3.61024.595,7.12037,1.79,11.07047,2.8151v-3.08012c0-11.81043-.085-23.62085.07-35.43127.03-2.4201-.88-3.55512-2.8701-4.54517a194.237,194.237,0,0,0-30.516-12.22542c-12.15046-3.67515-24.456-6.77026-37.13634-8.11031-7.47537-.79-14.9356-1.87006-22.43086-2.34508-6.44029-.405-12.92051-.065-19.37569-.175-11.7254-.2-23.31078,1.34-34.81632,3.23009a165.47369,165.47369,0,0,0-36.92625,10.84039c-17.17566,7.17527-32.62617,16.83062-45.03665,30.94611A96.8249,96.8249,0,0,0,79.70458,181.74c-5.25507,14.16051-8.55524,28.531-5.88522,43.80156a111.17927,111.17927,0,0,0,9.32541,29.85107,100.00057,100.00057,0,0,0,15.25055,22.50582,105.19553,105.19553,0,0,0,22.88082,18.99567,174.6911,174.6911,0,0,0,19.33065,9.98535c12.31551,5.75521,25.446,8.92533,38.7564,11.32041,5.18024.93,10.42542,1.57507,15.6706,2.09007,6.08518.595,12.19539,1.10005,18.3106,1.28005,5.18524.15,10.39539-.1,15.58063-.37,7.92021-.41,15.87557-.61,23.72583-1.61005,7.8903-1.005,15.6905-2.79511,23.50084-4.38516A208.85327,208.85327,0,0,0,311.708,304.19438c4.63506-1.85,9.00032-4.36514,13.60046-6.31022,1.72-.725,2.395-1.48,2.38009-3.37512C327.60849,281.69858,327.64853,268.88812,327.64353,256.08267ZM176.91315,221.68144c-7.55032,2.25509-18.61066,3.24512-27.856,2.32507V204.91583c2.575,0,5.0401-.04,7.50027.01a44.01615,44.01615,0,0,0,16.67552-3.16512c6.27525-2.39508,10.14539-10.79537,9.05038-18.23564-1.52508-10.38038-13.15551-18.20067-22.04584-18.31066a26.24611,26.24611,0,0,0-14.3655,3.88512,15.26869,15.26869,0,0,0-7.45022,12.27543c-.66006,7.09029-.615,14.25552-.635,21.38578-.06506,23.95087-.025,47.90171-.025,71.85258v2.67509c-2.45016-1.245-4.58012-2.24007-6.62524-3.3851-3.61512-2.01509-7.24525-4.02017-10.72536-6.26024a4.37081,4.37081,0,0,1-1.845-3.08009c-.1001-28.366-.275-56.73205.05494-85.09806.08008-7.21028,3.70008-13.62549,8.3803-19.13069a39.81921,39.81921,0,0,1,24.08583-13.66049,48.5523,48.5523,0,0,1,30.12107,4.33014A38.039,38.039,0,0,1,201.034,172.53466C208.10921,191.54535,201.264,214.40118,176.91315,221.68144Z"/>
      <path class="cls-2" d="M311.98584,209.69717H298.07335v-21.988h59.23094v21.92551H344.59986v25.8724h-32.614Z"/>
    </g>
    <g>
      <path class="cls-3" d="M119.92111,118.26968l-2.90137,1.523-2.96191-5.64209-16.415,8.61768,2.96191,5.64208-2.90039,1.52247-4.334-8.25538L95.6008,120.506a25.62027,25.62027,0,0,0-1.36914-7.79883,54.27841,54.27841,0,0,0-3.89844-9.43994L88.02365,98.8688,102.52658,91.255l10.542,20.08106,2.51856-1.32178Zm-9.84863-5.36084-9.16992-17.46729L92.32834,99.943l1.623,3.0918a50.263,50.263,0,0,1,3.52637,8.53711,28.095,28.095,0,0,1,1.43848,7.19384Z"/>
      <path class="cls-3" d="M114.18576,96.06265a8.59689,8.59689,0,0,1,5.12109-5.02246,8.43776,8.43776,0,0,1,7.03125-.16309q3.14356,1.459,4.917,5.71143,1.81639,4.35351.667,7.67871a8.36106,8.36106,0,0,1-5.06836,4.96142,8.649,8.649,0,0,1-7.14453.17139,10.16226,10.16226,0,0,1-4.998-5.7168A10.2796,10.2796,0,0,1,114.18576,96.06265Zm10.73144-2.4668a5.62211,5.62211,0,0,0-7.88476,3.30762,9.76986,9.76986,0,0,0,4.07812,9.82519,5.32234,5.32234,0,0,0,4.77832.09375A5.08673,5.08673,0,0,0,129.04513,103.4a8.46841,8.46841,0,0,0-.65234-5.53955A8.22348,8.22348,0,0,0,124.9172,93.59585Z"/>
      <path class="cls-3" d="M132.8967,83.53823a7.96965,7.96965,0,0,1,1.9248-3.605,10.91669,10.91669,0,0,1,3.83106-2.41211A12.11741,12.11741,0,0,0,141.928,75.841a1.53057,1.53057,0,0,0,.43652-.74951l2.90723-.95362a5.10422,5.10422,0,0,1,.03515,1.08741,4.62538,4.62538,0,0,1-.1582.90429,2.52133,2.52133,0,0,1-.41992.80078q-.30323.40284-.51563.68067a3.01332,3.01332,0,0,1-.6914.60547q-.48048.32813-.75977.51416a6.67123,6.67123,0,0,1-.88965.4624q-.61083.27685-.873.40039c-.17579.08252-.498.21387-.96973.39356q-.70752.27026-.90137.37109a6.18986,6.18986,0,0,0-3.666,3.6084,10.82033,10.82033,0,0,0-.26172,5.90136l.10254-.03369a6.68354,6.68354,0,0,1,1.44043-3.69287,7.04083,7.04083,0,0,1,3.43847-2.33984,7.9259,7.9259,0,0,1,6.68067.44238,10.10615,10.10615,0,0,1,4.31933,5.95215q1.44728,4.41284.07227,7.55371a8.17515,8.17515,0,0,1-5.30957,4.43115,8.51056,8.51056,0,0,1-6.06153-.11474,8.89377,8.89377,0,0,1-4.52636-4.5586,24.00286,24.00286,0,0,1-1.25977-3.14795Q131.8425,87.48355,132.8967,83.53823Zm4.63574,11.24756a8.02948,8.02948,0,0,0,3.04687,4.38086,5.047,5.047,0,0,0,4.5918.54,4.89351,4.89351,0,0,0,3.28125-3.04639,8.232,8.232,0,0,0-.22363-5.41992,7.97262,7.97262,0,0,0-3.041-4.42041,5.43649,5.43649,0,0,0-7.81054,2.58057A7.98326,7.98326,0,0,0,137.53244,94.78579Z"/>
      <path class="cls-3" d="M155.54416,79.30923l.6123,2.55566a6.8734,6.8734,0,0,1,5.34571-4.57519,7.767,7.767,0,0,1,6.61621,1.11768,10.49268,10.49268,0,0,1,3.88379,6.39941,10.817,10.817,0,0,1-.51563,7.5083,7.50886,7.50886,0,0,1-5.27441,4.02148,7.27057,7.27057,0,0,1-6.76953-1.5249L161.716,104.299l-2.97656.71289-5.99609-25.03174Zm6.09765.5752a5.067,5.067,0,0,0-3.62988,2.85009,8.32654,8.32654,0,0,0-.251,5.52051,8.19406,8.19406,0,0,0,2.75977,4.79883,5.20421,5.20421,0,0,0,4.59766.87939,4.96168,4.96168,0,0,0,3.57324-2.855,8.40135,8.40135,0,0,0,.2373-5.49853,8.32252,8.32252,0,0,0-2.72461-4.80762A5.10382,5.10382,0,0,0,161.64181,79.88443Z"/>
      <path class="cls-3" d="M176.3508,76.8854a8.59782,8.59782,0,0,1,6.18555-3.63232A8.435,8.435,0,0,1,189.3967,74.798q2.69677,2.17676,3.38769,6.73242.70752,4.66333-1.21289,7.61182a8.35987,8.35987,0,0,1-6.11914,3.58545,8.64991,8.64991,0,0,1-6.97363-1.564,10.16506,10.16506,0,0,1-3.46387-6.75732A10.27951,10.27951,0,0,1,176.3508,76.8854Zm11.00879.20606a5.62044,5.62044,0,0,0-8.4502,1.29931,8.2248,8.2248,0,0,0-.77344,5.46973,8.24855,8.24855,0,0,0,2.34961,5.05078,5.3216,5.3216,0,0,0,4.61329,1.24854,5.08638,5.08638,0,0,0,3.8916-2.55616,8.4671,8.4671,0,0,0,.708-5.53271A8.21686,8.21686,0,0,0,187.35959,77.09146Z"/>
      <path class="cls-3" d="M197.23459,90.55l-1.24805-18.53418,8.585-.57812a13.86451,13.86451,0,0,1,3.14551.09473,4.45638,4.45638,0,0,1,2.35351,1.19482,4.01184,4.01184,0,0,1,1.16114,2.772,4.17672,4.17672,0,0,1-2.46192,4.1709l.00293.03613a4.16409,4.16409,0,0,1,2.68848,1.35205,4.81422,4.81422,0,0,1,1.13867,2.97266,5.25335,5.25335,0,0,1-1.31738,4.02148,5.57534,5.57534,0,0,1-3.9541,1.81788Zm7.5166-11.61963a4.50758,4.50758,0,0,0,2.66992-.811,2.20748,2.20748,0,0,0,.68359-1.9043,2.0817,2.0817,0,0,0-.91113-1.74267,4.83019,4.83019,0,0,0-2.76855-.39063l-5.28028.35547.32618,4.84912Zm-5.10547,2.9419.39355,5.855,6.53711-.44043a2.935,2.935,0,0,0,2.1875-1.01318,3.13059,3.13059,0,0,0,.65821-2.28125q-.186-2.76562-3.77832-2.52393Z"/>
      <path class="cls-3" d="M217.86838,73.00113a8.59611,8.59611,0,0,1,6.70605-2.544,8.43823,8.43823,0,0,1,6.50586,2.67334q2.29248,2.59789,2.21094,7.20459-.085,4.71606-2.47168,7.30078a8.36171,8.36171,0,0,1-6.63477,2.50928,8.65087,8.65087,0,0,1-6.6123-2.71094,10.16634,10.16634,0,0,1-2.28223-7.24219A10.28017,10.28017,0,0,1,217.86838,73.00113Zm10.81836,2.04834a5.62163,5.62163,0,0,0-8.54883-.13526,8.22726,8.22726,0,0,0-1.67871,5.2627,8.249,8.249,0,0,0,1.46972,5.373,5.322,5.322,0,0,0,4.33887,2.0044,5.08338,5.08338,0,0,0,4.26367-1.86768,8.464,8.464,0,0,0,1.627-5.33594A8.222,8.222,0,0,0,228.68674,75.04947Z"/>
      <path class="cls-3" d="M252.64963,73.00845l-1.88575,18.48-3.04492-.31055,1.61231-15.79394-6.58985-.67237-1.084,8.14014q-.53907,4.21509-2.165,5.9668a4.35163,4.35163,0,0,1-3.77539,1.53271,5.3,5.3,0,0,1-2.14453-.6167l.25293-2.47119a3.698,3.698,0,0,0,1.58594.415,2.21579,2.21579,0,0,0,1.96289-.97558,7.84274,7.84274,0,0,0,1.24218-3.83594l1.46192-11.14112Z"/>
      <path class="cls-3" d="M270.302,84.8732a5.387,5.387,0,0,1,.86523,4.39111,5.65966,5.65966,0,0,1-2.34765,3.84619,5.84927,5.84927,0,0,1-4.52051.76758l-9.66016-1.80371,3.40918-18.26026,3.00782.56153-1.30176,6.97168,6.51172,1.21582A6.21593,6.21593,0,0,1,270.302,84.8732Zm-5.47461.09472-5.55566-1.03711-1.12989,6.05127,5.55567,1.03711a4.42453,4.42453,0,0,0,2.96289-.271,2.78829,2.78829,0,0,0,1.39258-2.06543Q268.614,85.67544,264.82736,84.96792Z"/>
      <path class="cls-3" d="M275.55685,96.381l-2.95312-.80469L277.48654,77.654l2.95313.8042-1.94043,7.1206,8.96191,2.44141,1.93945-7.12061,2.95215.8042-4.88281,17.92285-2.95215-.8042,2.2334-8.19726-8.96192-2.44141Z"/>
      <path class="cls-3" d="M307.69552,104.15933l-.80566,2.23535a5.78058,5.78058,0,0,1-2.08594-.36963q-2.47264-.89062-1.6123-3.48926a8.6072,8.6072,0,0,1-7.334.49463,6.35072,6.35072,0,0,1-3.60546-2.792,4.85794,4.85794,0,0,1-.20118-4.167q1.68457-4.67358,8.16309-3.21875.43066.0791,1.23437.292a11.63728,11.63728,0,0,0,3.9043.52686,2.24137,2.24137,0,0,0,1.45117-1.582q1.03712-2.87768-2.92578-4.30664a5.20126,5.20126,0,0,0-3.38086-.28125,4.06247,4.06247,0,0,0-2.23535,2.27491l-2.81152-1.01319a5.82815,5.82815,0,0,1,3.57324-3.64892,8.76274,8.76274,0,0,1,5.87891.35888q3.68994,1.33008,4.876,3.6709a3.41294,3.41294,0,0,1,.334,1.72754,6.90789,6.90789,0,0,1-.21387,1.54883q-.16845.57129-.57031,1.689-.46436,1.2876-1.47168,3.87012-1.00782,2.584-1.47168,3.87061a2.73839,2.73839,0,0,0-.22754,1.4292,1.09123,1.09123,0,0,0,.791.72509A3.53062,3.53062,0,0,0,307.69552,104.15933Zm-2.19824-8.4458a4.05611,4.05611,0,0,1-.79.17431,3.58338,3.58338,0,0,1-.96093-.04c-.375-.05859-.62989-.09326-.76661-.104a8.92829,8.92829,0,0,1-.94628-.188q-.74122-.17139-.7754-.18408-1.09863-.24243-1.43847-.3081-.34131-.06519-1.32324-.15137a3.70685,3.70685,0,0,0-1.46485.084,3.6345,3.6345,0,0,0-1.05176.63526,2.84539,2.84539,0,0,0-.8623,1.27734,2.79388,2.79388,0,0,0,.16211,2.46924,4.10761,4.10761,0,0,0,2.27637,1.70068,6.37491,6.37491,0,0,0,4.13086.11133,3.7628,3.7628,0,0,0,2.66308-2.293Z"/>
      <path class="cls-3" d="M322.49924,113.43814l-2.793-1.25,3.10351-6.93311-3.71289-1.66211-8.459,4.53613L306.925,106.467l8.99609-4.41407a5.46666,5.46666,0,0,1-2.32617-2.9541,5.947,5.947,0,0,1,3.38672-6.90478,6.04348,6.04348,0,0,1,4.498.436l8.60938,3.85352Zm3.69336-15.74073-4.92872-2.20605q-3.35155-1.5-4.48339,1.02978-1.14844,2.56349,2.2041,4.06348l4.92871,2.20606Z"/>
    </g>
    <g>
      <path class="cls-3" d="M117.74338,327.6022a11.25475,11.25475,0,0,1-6.11328,5.60156,12.26522,12.26522,0,0,1-14.67286-7.37695q-1.49121-4.59668.96875-10.24024a14.39722,14.39722,0,0,1,6.78711-7.50683,11.00578,11.00578,0,0,1,9.69922.04492,12.0715,12.0715,0,0,1,5.69043,4.876,8.01783,8.01783,0,0,1,.73731,6.958l-3.10254-1.35253a6.48828,6.48828,0,0,0-.73535-4.62012,7.88554,7.88554,0,0,0-3.82032-3.2168,7.44886,7.44886,0,0,0-7.13281.19043,12.41325,12.41325,0,0,0-4.97363,5.96094,11.79328,11.79328,0,0,0-.96582,7.98242,7.70964,7.70964,0,0,0,4.65332,5.0918,7.16746,7.16746,0,0,0,5.54.35254,8.71014,8.71014,0,0,0,4.33886-4.09766Z"/>
      <path class="cls-3" d="M135.428,337.86685q-3.47462,5.647-9.791,3.4248a8.24112,8.24112,0,0,1-5.21387-4.54394,10.162,10.162,0,0,1,.16407-7.46094,10.80256,10.80256,0,0,1,4.67675-6.082,7.83916,7.83916,0,0,1,6.81836-.5586q4.04151,1.42091,5.03223,4.84278a12.29831,12.29831,0,0,1-.47852,7.59765l-.14355.40723-13.17676-4.63574-.10547.19141a6.61664,6.61664,0,0,0-.08105,4.89453,5.46973,5.46973,0,0,0,3.44629,3.00683,4.96227,4.96227,0,0,0,3.31543.17383,6.04568,6.04568,0,0,0,2.71875-2.249Zm-1.09961-5.76758a6.65922,6.65922,0,0,0-.14844-4.46,4.8502,4.8502,0,0,0-3.00195-2.63965,4.96694,4.96694,0,0,0-4,.19531,6.77875,6.77875,0,0,0-3.03711,3.32032Z"/>
      <path class="cls-3" d="M145.511,327.62759l-.707,2.53125a6.87372,6.87372,0,0,1,6.89453-1.40234,7.76778,7.76778,0,0,1,5.24024,4.1914,10.492,10.492,0,0,1,.28516,7.48047,10.81062,10.81062,0,0,1-4.09864,6.3125,7.50709,7.50709,0,0,1-6.56347.95215A7.26983,7.26983,0,0,1,141.386,343.071l-2.623,9.39648-2.94727-.82226,6.9209-24.792Zm5.04981,3.46484a5.06651,5.06651,0,0,0-4.55762.72754,8.32439,8.32439,0,0,0-2.90137,4.70313,8.18515,8.18515,0,0,0,.08106,5.53613,5.203,5.203,0,0,0,3.59082,3.00195,4.95934,4.95934,0,0,0,4.50977-.75976,9.99594,9.99594,0,0,0,2.834-10.21582A5.10758,5.10758,0,0,0,150.56076,331.09243Z"/>
      <path class="cls-3" d="M175.91525,337.79361l-6.51465-1.38477-3.30175,15.52832-2.99317-.63672,3.30176-15.52832-6.51465-1.38574.56152-2.64063,16.02246,3.40723Z"/>
      <path class="cls-3" d="M179.94064,354.486l-3.88379-.55957,2.64942-18.38672,3.02832.43652-2.16114,15.001.07129.01074,10.42774-13.81055,3.88379.55958-2.64844,18.38671-3.0293-.43652,2.16114-15.001-.07129-.01074Z"/>
      <path class="cls-3" d="M222.84592,348.56118a16.304,16.304,0,0,1-.91895,4.89356,7.61786,7.61786,0,0,1-2.59961,3.498,6.59475,6.59475,0,0,1-4.43848,1.24707,4.86379,4.86379,0,0,1-2.13086-.67872,5.33845,5.33845,0,0,1-1.665-1.34082l-.07227-.00293-.40918,8.55762-3.02051-.14453.40918-8.55762-.07226-.0039a5.34565,5.34565,0,0,1-1.78614,1.17578,4.85585,4.85585,0,0,1-2.18457.47265,6.59578,6.59578,0,0,1-4.2998-1.665,7.61817,7.61817,0,0,1-2.25391-3.73047,16.33653,16.33653,0,0,1-.44824-4.959,11.13468,11.13468,0,0,1,2.27344-6.8291,6.30968,6.30968,0,0,1,5.40722-2.28223,5.06881,5.06881,0,0,1,2.3252.74219,4.8762,4.8762,0,0,1,1.67773,1.46778l.10743.00488.41113-8.59375,3.02051.14355-.41114,8.59473.1084.00488a4.85639,4.85639,0,0,1,1.80957-1.30078,5.07159,5.07159,0,0,1,2.38574-.5166,6.30955,6.30955,0,0,1,5.165,2.78809A11.13406,11.13406,0,0,1,222.84592,348.56118ZM208.14963,352.904l.44726-9.34961a3.15943,3.15943,0,0,0-1.39746-2.04883,4.63722,4.63722,0,0,0-2.25391-.7207,3.67265,3.67265,0,0,0-3.4707,1.72656,9.99114,9.99114,0,0,0-1.3584,5.03516,14.79466,14.79466,0,0,0,.09082,2.61718,10.13294,10.13294,0,0,0,.60743,2.37207,4.12935,4.12935,0,0,0,1.37109,1.84961,3.97271,3.97271,0,0,0,2.25293.75586,4.13525,4.13525,0,0,0,2.4248-.58691A2.62478,2.62478,0,0,0,208.14963,352.904Zm11.52832-4.42188a9.98867,9.98867,0,0,0-.8711-5.1416,3.67342,3.67342,0,0,0-3.29-2.0498,4.63585,4.63585,0,0,0-2.3125.50195,3.15561,3.15561,0,0,0-1.58691,1.90625l-.44727,9.34961a2.62169,2.62169,0,0,0,1.12305,1.76562,4.13172,4.13172,0,0,0,2.35742.81543,3.966,3.966,0,0,0,2.31446-.53808,4.11558,4.11558,0,0,0,1.542-1.71,10.20263,10.20263,0,0,0,.83105-2.30274A14.89959,14.89959,0,0,0,219.678,348.48208Z"/>
      <path class="cls-3" d="M231.69455,357.62954l-3.918.21973-1.03711-18.54785,3.05566-.16992.84571,15.13183.07129-.0039,7.49414-15.59864,3.917-.21875,1.03711,18.54688-3.05567.1709L239.259,342.027l-.07129.00489Z"/>
      <path class="cls-3" d="M265.5842,353.99478l-3.84864.55566-8.00488-8.083-2.47949,3.23145.89941,6.23535-3.02832.43652L246.469,337.985l3.02832-.43652,1.26563,8.76465,7.14355-9.97852,4.06153-.58594-6.36719,8.30274Z"/>
      <path class="cls-3" d="M284.40353,347.08072l.54785,2.31152a5.7716,5.7716,0,0,1-1.94921.832q-2.55762.60645-3.25782-2.04a8.607,8.607,0,0,1-5.87011,4.42481,6.35156,6.35156,0,0,1-4.54493-.36524,4.86039,4.86039,0,0,1-2.44726-3.37891q-1.14551-4.834,5.07422-7.15917c.26953-.11329.667-.25586,1.19336-.43067a11.66545,11.66545,0,0,0,3.55664-1.69336,2.24313,2.24313,0,0,0,.34961-2.11816q-.70606-2.97657-4.80469-2.00586a5.20817,5.20817,0,0,0-2.98438,1.61328,4.068,4.068,0,0,0-.62793,3.127l-2.90722.68946a5.82507,5.82507,0,0,1,.99609-5.00879,8.75953,8.75953,0,0,1,5.11817-2.915q3.81738-.90381,6.08984.40722a3.39521,3.39521,0,0,1,1.22363,1.26368,6.912,6.912,0,0,1,.669,1.41406q.17139.56982.44531,1.72558.31641,1.33155.88477,4.04493.56835,2.71436.88476,4.04492a2.73471,2.73471,0,0,0,.59082,1.32129,1.09152,1.09152,0,0,0,1.0586.1748A3.56858,3.56858,0,0,0,284.40353,347.08072Zm-6.46-5.86915a4.062,4.062,0,0,1-.56543.57813,3.61458,3.61458,0,0,1-.82715.49219q-.51855.23438-.69824.332a8.91069,8.91069,0,0,1-.89551.36035q-.71484.2622-.75.26953-1.05176.39844-1.373.5293-.3208.13184-1.19043.59668a3.725,3.725,0,0,0-1.18067.87109,3.65721,3.65721,0,0,0-.5332,1.10742,2.84917,2.84917,0,0,0-.02344,1.541,2.8003,2.8003,0,0,0,1.48633,1.97851,4.11055,4.11055,0,0,0,2.83594.17872,6.376,6.376,0,0,0,3.51953-2.166,3.76222,3.76222,0,0,0,.97559-3.376Z"/>
      <path class="cls-3" d="M305.04611,349.027l-1.9043-5.58886-13.97168,4.75879-5.98925-17.584,2.89648-.98633,5.11914,15.02832,8.65527-2.94824-5.11816-15.02832,2.89649-.9873,5.11816,15.02832,2.2832-.77735,2.77442,8.14453Z"/>
      <path class="cls-3" d="M313.51779,339.17154l-3.57422,1.61914-7.66406-16.9209,2.78711-1.2627,6.25293,13.80567.0664-.03028,1.3545-17.251,3.57422-1.61914,7.66406,16.92089-2.78711,1.2627-6.25391-13.80566-.06543.02929Z"/>
      <path class="cls-3" d="M342.13205,324.40689l-2.66016,1.51269-3.7539-6.60351-3.53614,2.00976-1.34765,9.50391-3.53614,2.01074,1.76368-9.86426a5.47009,5.47009,0,0,1-3.75782.12793,5.95024,5.95024,0,0,1-3.56445-6.81543,6.04552,6.04552,0,0,1,3.0127-3.36914l8.20019-4.66113Zm-10.50586-12.28907-4.69434,2.66895q-3.19189,1.81347-1.82226,4.22363,1.3872,2.44189,4.58008.627l4.69433-2.66895Z"/>
    </g>
  </g>
</svg>
