<svg xmlns="http://www.w3.org/2000/svg" xmlns:xlink="http://www.w3.org/1999/xlink" width="788.86957" height="420.36515" viewBox="0 0 788.86957 420.36515">
  <defs>
    <style>
      .cls-1 {
        fill: url(#Degradado_sin_nombre_3);
      }

      .cls-2 {
        fill: url(#Degradado_sin_nombre_3-2);
      }

      .cls-3 {
        fill: url(#Degradado_sin_nombre_3-3);
      }

      .cls-4 {
        fill: url(#Degradado_sin_nombre_3-4);
      }

      .cls-5 {
        fill: url(#Degradado_sin_nombre_3-5);
      }

      .cls-6 {
        fill: #c9c9c9;
      }
    </style>
    <linearGradient id="Degradado_sin_nombre_3" data-name="Degradado sin nombre 3" x1="35.13625" y1="205.61829" x2="206.95199" y2="205.61829" gradientUnits="userSpaceOnUse">
      <stop offset="0" stop-color="#d2d2d2"/>
      <stop offset="0.19072" stop-color="#acacac"/>
      <stop offset="0.31959" stop-color="#e2e2e2"/>
      <stop offset="0.46907" stop-color="#eee"/>
      <stop offset="0.6134" stop-color="#8e8e8e"/>
      <stop offset="0.79897" stop-color="#acacac"/>
      <stop offset="1" stop-color="#d2d2d2"/>
    </linearGradient>
    <linearGradient id="Degradado_sin_nombre_3-2" x1="44.09322" y1="94.02525" x2="73.22888" y2="94.02525" xlink:href="#Degradado_sin_nombre_3"/>
    <linearGradient id="Degradado_sin_nombre_3-3" x1="169.26389" y1="94.01231" x2="197.77251" y2="94.01231" xlink:href="#Degradado_sin_nombre_3"/>
    <linearGradient id="Degradado_sin_nombre_3-4" x1="172.02732" y1="107.16606" x2="189.75409" y2="107.16606" xlink:href="#Degradado_sin_nombre_3"/>
    <linearGradient id="Degradado_sin_nombre_3-5" x1="52.06042" y1="107.03781" x2="69.97621" y2="107.03781" xlink:href="#Degradado_sin_nombre_3"/>
  </defs>
  <g id="OBJECTS">
    <g>
      <path class="cls-1" d="M72.27375,146.27385c3.48324-3.8962,6.27506-7.04455,9.09675-10.166,1.79465-1.98533,2.618-3.77322-.62159-5.1805-.64445-.27994-1.61838-.96553-1.599-1.42893.20862-4.98346-3.59922-4.08154-6.44522-4.44611-5.604-.71789-10.33493-2.81358-13.28044-7.92652a6.65647,6.65647,0,0,1-.58294-1.366,6.13408,6.13408,0,0,1,.18954-1.48443c2.38649.67876,4.72583,1.212,6.97226,2.00706,7.65559,2.70958,10.93007,1.41048,14.20783-6.02952a63.44306,63.44306,0,0,0,2.86749-8.094c2.12869-7.4278-1.14946-12.57278-8.90288-13.66476C68.61469,87.711,62.9953,87.33009,57.39669,86.829c-9.51394-.85155-16.91331-4.94041-21.26379-13.73478a29.02162,29.02162,0,0,1-.99665-3.14109c3.24148,1.139,5.91694,1.671,8.17028,2.94673a46.06957,46.06957,0,0,0,22.56765,5.83741A56.64261,56.64261,0,0,1,79.87072,80.7898c9.41612,2.58851,14.1787,10.12475,12.49687,19.68538-.68017,3.8665-2.43666,7.54653-3.73136,11.3018-.60545,1.75608-1.72993,3.47122-1.80062,5.2376-.08175,2.043.14816,5.411,1.28307,5.9286,2.733,1.24649,6.12339,1.41761,8.58692-1.40773,1.22989-1.4105,2.52508-2.77262,3.65811-4.25755,6.916-9.064,16.34652-11.35173,27.0081-9.65866a16.27319,16.27319,0,0,1,7.26384,3.49462,67.84827,67.84827,0,0,1,9.9161,9.63385,7.27457,7.27457,0,0,0,7.60165,2.67683c1.14592-.20567,2.88144-1.8759,2.86951-2.8617A33.66763,33.66763,0,0,0,153.622,112.595c-1.22168-4.6698-3.30493-9.21712-3.82059-13.94693-.99233-9.102,3.47054-15.41027,12.39023-17.87153a58.96688,58.96688,0,0,1,14.36718-2.06432c7.81713-.15653,15.04381-1.73283,21.80718-5.76508,2.26391-1.34973,5.04057-1.84164,8.586-3.07446-1.01005,4.75177-2.82072,7.73964-5.73549,10.20575-7.03446,5.95172-15.61731,6.76562-24.26618,7.46171a93.46514,93.46514,0,0,0-10.04317,1.14572c-6.38819,1.22082-9.49421,5.282-8.12652,11.55911a57.25221,57.25221,0,0,0,4.931,13.23844c2.03619,4.06438,4.99239,4.89909,9.48706,3.6497,3.29025-.91459,6.5455-1.95478,10.5499-3.15974-1.66475,6.00175-5.34576,8.6765-9.98986,10.23093a22.08014,22.08014,0,0,1-5.89516,1.002c-2.64547.12679-5.11883.08061-4.94072,3.831.02614.55072-.72246,1.40222-1.31534,1.675-3.63026,1.67-2.4501,3.55413-.49577,5.73213,2.7224,3.034,5.303,6.19491,8.40312,9.84109-1.6168.11293-2.76391.24734-3.91282.26494-11.4971.17621-22.99428.41779-34.49192.445-3.53543.00836-4.83794,1.285-4.80987,4.86531.13115,16.72629.04471,33.45418.07812,50.18139.00815,4.07712.72779,4.71719,4.67122,3.94132,11.7122-2.30442,21.71226-7.44128,28.26982-17.84979,5.0731-8.05232,4.54691-16.39835.48587-24.616a12.58925,12.58925,0,0,0-4.3785-4.47893c-3.15422-2.08055-6.55132-.84048-7.91869,2.6794a47.156,47.156,0,0,0-1.38588,5.05049c-1.04074,3.9332-2.59025,5.00483-6.69263,4.61971-3.40088-.31929-5.10979-2.2751-5.30448-6.07086a11.22385,11.22385,0,0,1,8.98941-11.72174c15.333-3.45922,27.80127,5.49976,29.42619,21.14391q2.524,24.30029-21.1529,37.10577c-2.96179,1.59968-6.03409,2.996-8.98581,4.61294-.7769.42554-1.76729,1.307-1.79368,2.01148-.02522.67311.9389,1.70313,1.70432,2.0383a30.664,30.664,0,0,1,18.28259,34.2499c-2.37651,13.18047-9.85266,22.3332-21.9842,27.82048a6.66291,6.66291,0,0,0-1.6905.78725c-.96285.84667-2.49658,1.81471-2.51013,2.75164-.01338.92529,1.3841,2.30726,2.46335,2.73884,5.61038,2.24334,9.58461,6.22222,12.59423,11.2758a22.88657,22.88657,0,0,1,1.33465,22.20548c-2.207,4.92292-6.39441,7.581-11.23708,9.24157a78.03841,78.03841,0,0,1-9.79039,2.50716c-2.32311.47181-3.68,1.4949-3.4206,3.99127.25365,2.44151-.80017,3.45221-3.22948,3.25308a25.58369,25.58369,0,0,0-3.74705.01486c-2.26916.14865-3.6828-.57665-3.44625-3.12656.24951-2.68951-1.18279-3.72-3.65227-4.19282a70.53148,70.53148,0,0,1-9.42683-2.3814c-12.37429-4.2049-17.66375-18.01547-11.48385-29.62546,3.14705-5.91229,7.42545-10.56549,13.78913-13.14167.97393-.39429,2.24236-1.61863,2.23726-2.45216-.0056-.91866-1.15141-2.10407-2.09944-2.6949-3.68293-2.29521-7.88416-3.92171-11.17255-6.65954a35.84944,35.84944,0,0,1-7.85168-46.34489,20.84992,20.84992,0,0,1,12.221-9.89341c1.16683-.34574,2.11262-1.43558,3.16022-2.18265-.91346-.86658-1.68235-2.03267-2.763-2.553-9.88038-4.75812-19.442-9.95947-25.1697-19.86109-6.08217-10.51438-7.40994-21.46872-1.16857-32.3492,6.0993-10.63287,21.40724-14.71434,30.56652-8.18252a13.08819,13.08819,0,0,1,4.64427,7.16811c.51182,2.186-.25465,5.83863-1.82989,7.034-1.77611,1.34789-5.09766.8568-7.7324.76163-.74949-.02707-1.68286-1.35275-2.11194-2.27731a19.12677,19.12677,0,0,1-1.04569-3.96787c-.56066-2.55643-.7882-5.32277-3.97158-6.17485-3.14953-.843-5.22446.98964-7.21247,2.97277-5.18,5.16734-6.76358,15.47919-2.98572,23.53594,6.27543,13.38314,18.057,19.01,31.8395,21.45042,2.20211.3899,3.22222-.79583,3.22076-3.00168q-.01762-26.40142.01786-52.80281c.00767-3.093-1.97477-3.30713-4.25749-3.3393q-17.4343-.24552-34.86825-.51689C75.61921,146.52738,74.41508,146.40555,72.27375,146.27385ZM115.9568,252.099c0-6.47837-.05027-12.95728.02363-19.4348.03153-2.76407-1.22358-4.201-3.85359-3.44811-3.18672.91226-6.6357,1.782-9.24456,3.67106-7.47538,5.41288-9.60284,13.30769-7.65623,21.91907,2.0639,9.13019,6.81358,16.60956,16.42332,19.67154,3.36984,1.07373,4.25188.32912,4.284-3.3175C115.98927,264.807,115.94892,258.45283,115.9568,252.099Zm10.38514-.348c0,6.36548-.03521,12.73122.013,19.09633.02965,3.91122,1.05989,4.652,4.82385,3.44178a13.21814,13.21814,0,0,0,4.03691-1.91729c7.13183-5.52184,11.86762-12.46921,12.11224-21.79175.29072-11.07933-6.2938-19.71492-16.04018-21.25971-4.18146-.66277-4.92846-.06474-4.94226,4.08314C126.32518,239.51932,126.34028,245.63519,126.34194,251.751Zm-10.3956,62.97985c0-4.729-.01187-9.458.00549-14.187.00757-2.06223-.77186-3.53375-3.03073-3.28792-5.02864.54723-9.83315,1.7587-13.35994,5.79847-4.6452,5.32084-4.86423,11.32168-2.19151,17.45845,2.89487,6.64685,8.04755,10.63774,15.37745,11.50318,2.54039.29994,3.21129-1.28781,3.20026-3.47155C115.9241,323.94011,115.94029,319.33545,115.94634,314.73089Zm10.41993-.37483q0,7.1134-.00276,14.22676c-.00412,2.18329.65085,3.58565,3.24946,3.44384,8.49848-.46376,16.72145-9.96685,16.6445-19.23361-.08126-9.78643-7.75059-14.566-16.508-15.54583-2.42354-.27113-3.42029.89612-3.3964,3.25654C126.39982,305.12075,126.36682,309.73859,126.36627,314.35606Z"/>
      <path class="cls-2" d="M44.09322,87.7264c3.85186,1.49293,6.84448,3.12908,10.03782,3.77412,4.32387.87343,8.80513.95564,13.21162,1.44274,1.54963.17129,3.37238.1033,4.55244.905,2.22309,1.5104,1.5197,4.63951-1.01926,5.64553C62.98632,102.61988,48.16706,96.53064,44.09322,87.7264Z"/>
      <path class="cls-3" d="M197.77251,88.46605a14.7174,14.7174,0,0,1-9.78513,9.03346,73.55841,73.55841,0,0,1-15.05907,2.10584c-1.18325.07166-3.28158-1.841-3.578-3.15206a2.97076,2.97076,0,0,1,3.60906-3.59952c8.29655,1.41849,15.77314-.92907,23.09543-4.37009C196.349,88.34544,196.76511,88.46605,197.77251,88.46605Z"/>
      <path class="cls-4" d="M189.75409,103.49528c-2.77934,4.80606-11.19632,8.5589-16.24268,6.97259a1.77712,1.77712,0,0,1-.58806-.33268,2.66691,2.66691,0,0,1-.08386-3.9124,2.81064,2.81064,0,0,1,1.43549-.89383C179.35112,104.50642,184.49174,104.08079,189.75409,103.49528Z"/>
      <path class="cls-5" d="M52.06042,103.32316c5.43241.65713,10.72262,1.14864,15.942,2.04932a2.45885,2.45885,0,0,1,1.32129.9418,2.64587,2.64587,0,0,1-.44084,3.891,1.93545,1.93545,0,0,1-.6298.286C62.8529,111.75326,55.2436,108.29264,52.06042,103.32316Z"/>
    </g>
    <g>
      <path class="cls-6" d="M230.75505,182.19839v6.33887H230.133a10.024,10.024,0,0,0-1.22558-3.15235,4.72535,4.72535,0,0,0-1.84864-1.52832,5.91908,5.91908,0,0,0-2.29687-.311h-1.74414v18.06592a7.36771,7.36771,0,0,0,.19824,2.24511,1.78244,1.78244,0,0,0,.77734.78614,3.14736,3.14736,0,0,0,1.58008.33642h.77735v.63916h-12.2627v-.63916h.77734a3.23151,3.23151,0,0,0,1.64063-.36279,1.646,1.646,0,0,0,.708-.82861,7.10122,7.10122,0,0,0,.19043-2.17627V183.54556h-1.69239a4.92515,4.92515,0,0,0-3.4375,1.00195,6.62285,6.62285,0,0,0-1.89941,3.98975h-.65625v-6.33887Z"/>
      <path class="cls-6" d="M245.22771,181.87027a11.62112,11.62112,0,0,1,12.59082,11.95166,12.49119,12.49119,0,0,1-2.60742,7.8413,11.5963,11.5963,0,0,1-9.75879,4.49073q-6.3208,0-9.77539-4.28369a12.40086,12.40086,0,0,1-2.72852-8.03077,11.68018,11.68018,0,0,1,3.54883-8.69628A11.30017,11.30017,0,0,1,245.22771,181.87027Zm.208,1.10546a5.27747,5.27747,0,0,0-4.8877,3.28174,17.53027,17.53027,0,0,0-1.36523,7.73731q0,5.9934,2.10742,8.86035a4.803,4.803,0,0,0,4.11035,2.00342,4.92678,4.92678,0,0,0,2.9707-.86377,7.09011,7.09011,0,0,0,2.36621-3.53174,19.614,19.614,0,0,0,.84668-6.33008,21.019,21.019,0,0,0-.86425-6.95166,6.76135,6.76135,0,0,0-2.20215-3.25537A5.18959,5.18959,0,0,0,245.43572,182.97573Z"/>
      <path class="cls-6" d="M268.63005,195.01382V201.508a7.24956,7.24956,0,0,0,.2334,2.39209,1.70027,1.70027,0,0,0,.8291.78565,5.53281,5.53281,0,0,0,2.18457.29345v.63916H259.97771v-.63916a5.37775,5.37775,0,0,0,2.20215-.30224,1.76592,1.76592,0,0,0,.81152-.78565,7.15686,7.15686,0,0,0,.2334-2.3833V186.30923a7.24754,7.24754,0,0,0-.2334-2.39209,1.71185,1.71185,0,0,0-.82031-.78613,5.53776,5.53776,0,0,0-2.19336-.29346v-.63916h10.207q5.04345,0,7.23633,1.79639a5.57619,5.57619,0,0,1,2.19336,4.49072,5.73629,5.73629,0,0,1-1.416,3.90332,7.20219,7.20219,0,0,1-3.90332,2.21045A26.66642,26.66642,0,0,1,268.63005,195.01382Zm0-11.46826v10.12109q.56984.03516.86328.03467a4.16643,4.16643,0,0,0,3.24707-1.25244,5.6166,5.6166,0,0,0,1.14063-3.87744,5.41906,5.41906,0,0,0-1.14063-3.8169,4.46009,4.46009,0,0,0-3.40234-1.209Z"/>
      <path class="cls-6" d="M281.39372,182.19839H302.05v6.356h-.63867a9.208,9.208,0,0,0-1.0625-3.31592,2.89344,2.89344,0,0,0-1.58008-1.24365,15.75288,15.75288,0,0,0-3.69628-.27637h-4.76661v18.2041a3.66292,3.66292,0,0,0,.57813,2.5127,3.11593,3.11593,0,0,0,2.11621.54394h.60449v.63916H281.39372v-.63916H282.05a2.8449,2.8449,0,0,0,2.07227-.57861,3.79977,3.79977,0,0,0,.55273-2.478v-16.166a4.14055,4.14055,0,0,0-.457-2.25391q-.45849-.665-2.08105-.665h-.74317Z"/>
      <path class="cls-6" d="M315.97087,181.87027a11.62112,11.62112,0,0,1,12.59082,11.95166,12.49119,12.49119,0,0,1-2.60742,7.8413,11.59629,11.59629,0,0,1-9.75879,4.49073q-6.32079,0-9.77539-4.28369a12.40091,12.40091,0,0,1-2.72851-8.03077,11.68018,11.68018,0,0,1,3.54882-8.69628A11.30018,11.30018,0,0,1,315.97087,181.87027Zm.208,1.10546a5.27746,5.27746,0,0,0-4.88769,3.28174,17.53011,17.53011,0,0,0-1.36524,7.73731q0,5.9934,2.10742,8.86035a4.80307,4.80307,0,0,0,4.11035,2.00342,4.92683,4.92683,0,0,0,2.97071-.86377,7.09017,7.09017,0,0,0,2.36621-3.53174,19.61431,19.61431,0,0,0,.84668-6.33008,21.019,21.019,0,0,0-.86426-6.95166,6.76128,6.76128,0,0,0-2.20215-3.25537A5.18959,5.18959,0,0,0,316.17888,182.97573Z"/>
      <path class="cls-6" d="M345.55681,193.20034a11.95784,11.95784,0,0,1,4.67969,1.88233,5.00805,5.00805,0,0,1,1.93457,4.07617,5.39642,5.39642,0,0,1-2.124,4.36963q-2.60887,2.09033-7.582,2.08984H330.56462v-.63916a5.37139,5.37139,0,0,0,2.20215-.30224,1.76839,1.76839,0,0,0,.8125-.78565,7.16689,7.16689,0,0,0,.23242-2.3833V186.30923a7.25764,7.25764,0,0,0-.23242-2.39209,1.71618,1.71618,0,0,0-.82031-.78613,5.54022,5.54022,0,0,0-2.19434-.29346v-.63916h11.22657a15.94263,15.94263,0,0,1,5.69921.7168,5.93085,5.93085,0,0,1,2.64258,2.1416,5.29985,5.29985,0,0,1,.96778,3.03125,4.30782,4.30782,0,0,1-1.22657,3.01367A8.80336,8.80336,0,0,1,345.55681,193.20034Zm-6.28711.88086v7.5127l-.01758.86377a1.67417,1.67417,0,0,0,1.88282,1.88281,5.39222,5.39222,0,0,0,2.54785-.61328,4.19453,4.19453,0,0,0,1.78711-1.77881,5.43022,5.43022,0,0,0,.62207-2.59961,5.74823,5.74823,0,0,0-.75977-2.94482,4.09487,4.09487,0,0,0-2.08984-1.82178A11.34474,11.34474,0,0,0,339.2697,194.0812Zm0-1.34716a8.9008,8.9008,0,0,0,3.61817-.55274,4.11726,4.11726,0,0,0,1.78808-1.5542,5.58874,5.58874,0,0,0,.00879-5.104,3.89752,3.89752,0,0,0-1.75391-1.51123,9.317,9.317,0,0,0-3.66113-.50049Z"/>
      <path class="cls-6" d="M367.07634,181.87027a11.62112,11.62112,0,0,1,12.59082,11.95166,12.49119,12.49119,0,0,1-2.60742,7.8413A11.59629,11.59629,0,0,1,367.301,206.154q-6.32081,0-9.77539-4.28369a12.40086,12.40086,0,0,1-2.72852-8.03077,11.68018,11.68018,0,0,1,3.54883-8.69628A11.30017,11.30017,0,0,1,367.07634,181.87027Zm.208,1.10546a5.27748,5.27748,0,0,0-4.8877,3.28174,17.53027,17.53027,0,0,0-1.36523,7.73731q0,5.9934,2.10742,8.86035a4.80306,4.80306,0,0,0,4.11035,2.00342,4.92683,4.92683,0,0,0,2.97071-.86377,7.09024,7.09024,0,0,0,2.36621-3.53174,19.61431,19.61431,0,0,0,.84668-6.33008,21.019,21.019,0,0,0-.86426-6.95166,6.76135,6.76135,0,0,0-2.20215-3.25537A5.18959,5.18959,0,0,0,367.28435,182.97573Z"/>
      <path class="cls-6" d="M391.86052,199.27993H381.79119v-3.57519h10.06933Z"/>
      <path class="cls-6" d="M407.31755,205.61831v-.63916h.74317q1.70948,0,2.124-.7251a5.89717,5.89717,0,0,0,.41406-2.66015V183.71841h-8.27246V201.5939q0,2.26318.55274,2.82422a2.90864,2.90864,0,0,0,2.07226.561h.708v.63916H393.41423v-.63916h.74317a2.657,2.657,0,0,0,2.03808-.58691,4.94236,4.94236,0,0,0,.5-2.79834V186.20572a5.22409,5.22409,0,0,0-.46582-2.729q-.46581-.63867-2.07226-.63916h-.74317v-.63916h26.13184v.63916H418.924a2.72266,2.72266,0,0,0-2.17676.65625,4.79171,4.79171,0,0,0-.51758,2.71192V201.5939q0,2.26318.58692,2.82422a3.182,3.182,0,0,0,2.17675.561h.55274v.63916Z"/>
      <path class="cls-6" d="M429.77068,195.01382V201.508a7.24927,7.24927,0,0,0,.2334,2.39209,1.70027,1.70027,0,0,0,.8291.78565,5.53281,5.53281,0,0,0,2.18457.29345v.63916H421.11833v-.63916a5.37772,5.37772,0,0,0,2.20215-.30224,1.766,1.766,0,0,0,.81153-.78565,7.157,7.157,0,0,0,.23339-2.3833V186.30923a7.24765,7.24765,0,0,0-.23339-2.39209,1.71187,1.71187,0,0,0-.82032-.78613,5.53773,5.53773,0,0,0-2.19336-.29346v-.63916h10.207q5.04345,0,7.23632,1.79639a5.57617,5.57617,0,0,1,2.19336,4.49072,5.73633,5.73633,0,0,1-1.416,3.90332,7.20222,7.20222,0,0,1-3.90332,2.21045A26.66649,26.66649,0,0,1,429.77068,195.01382Zm0-11.46826v10.12109q.56982.03516.86328.03467a4.16645,4.16645,0,0,0,3.24707-1.25244,5.61665,5.61665,0,0,0,1.14062-3.87744,5.41911,5.41911,0,0,0-1.14062-3.8169,4.46012,4.46012,0,0,0-3.40234-1.209Z"/>
      <path class="cls-6" d="M455.27947,181.87027a11.62112,11.62112,0,0,1,12.59082,11.95166,12.49119,12.49119,0,0,1-2.60742,7.8413,11.59632,11.59632,0,0,1-9.75879,4.49073q-6.32081,0-9.77539-4.28369a12.40086,12.40086,0,0,1-2.72852-8.03077,11.68018,11.68018,0,0,1,3.54883-8.69628A11.30017,11.30017,0,0,1,455.27947,181.87027Zm.208,1.10546a5.27746,5.27746,0,0,0-4.88769,3.28174,17.53011,17.53011,0,0,0-1.36524,7.73731q0,5.9934,2.10743,8.86035a4.803,4.803,0,0,0,4.11035,2.00342,4.92678,4.92678,0,0,0,2.9707-.86377,7.09017,7.09017,0,0,0,2.36621-3.53174,19.614,19.614,0,0,0,.84668-6.33008,21.0187,21.0187,0,0,0-.86426-6.95166,6.76134,6.76134,0,0,0-2.20214-3.25537A5.18965,5.18965,0,0,0,455.48747,182.97573Z"/>
      <path class="cls-6" d="M485.98845,197.63882l6.35645-15.44043h9.5332v.63916h-.75977a3.27974,3.27974,0,0,0-1.6582.36279,1.68021,1.68021,0,0,0-.69043.81153,7.01145,7.01145,0,0,0-.19043,2.15918v15.44043a7.68027,7.68027,0,0,0,.19043,2.24511,1.71976,1.71976,0,0,0,.77637.78614,3.16068,3.16068,0,0,0,1.57226.33642h.75977v.63916H489.65056v-.63916h.75977a3.27711,3.27711,0,0,0,1.6582-.36279,1.68163,1.68163,0,0,0,.69043-.82861,7.10122,7.10122,0,0,0,.19043-2.17627V184.25405l-8.98145,21.36426h-.41406l-9.11914-21.209v16.49414a14.57762,14.57762,0,0,0,.08594,2.124,2.45876,2.45876,0,0,0,.97558,1.40772,4.05909,4.05909,0,0,0,2.35743.54394v.63916H469.84v-.63916h.24219a3.65869,3.65869,0,0,0,1.4502-.25049,2.331,2.331,0,0,0,1.01953-.71679,3.30765,3.30765,0,0,0,.53515-1.26074q.03516-.1897.03418-1.76172V186.17105a7.53534,7.53534,0,0,0-.18945-2.21924,1.7356,1.7356,0,0,0-.77734-.77734,3.15113,3.15113,0,0,0-1.57129-.33692H469.84v-.63916h9.56836Z"/>
      <path class="cls-6" d="M512.15447,192.83755h3.09082q5.00829,0,7.27148,1.76172a5.65522,5.65522,0,0,1,2.2627,4.69775,5.39485,5.39485,0,0,1-1.14844,3.45411,6.98294,6.98294,0,0,1-2.88477,2.15917,14.0216,14.0216,0,0,1-5.06933.708H503.12126v-.63916a4.76937,4.76937,0,0,0,2.78907-.57861,3.24508,3.24508,0,0,0,.61328-2.37451V186.4645q0-2.48656-.50977-3.03955t-2.70215-.5874v-.63916h12.05469v.63916a5.49386,5.49386,0,0,0-2.20215.311,1.846,1.846,0,0,0-.77734.72509,5.812,5.812,0,0,0-.23242,2.14161Zm0,1.52v7.064a4.38158,4.38158,0,0,0,.46582,2.35742,1.94805,1.94805,0,0,0,1.72754.68213,3.57477,3.57477,0,0,0,3.04785-1.36426,5.49269,5.49269,0,0,0,1.02832-3.40235,5.64286,5.64286,0,0,0-.9336-3.30761,4.03364,4.03364,0,0,0-2.08105-1.68408A11.88335,11.88335,0,0,0,512.15447,194.35757Zm24.40332,10.62158v.63916H524.33025v-.63916H525.09a3.0489,3.0489,0,0,0,1.65821-.36279,1.66365,1.66365,0,0,0,.71679-.87207,8.61467,8.61467,0,0,0,.16407-2.13281V186.20572a9.79454,9.79454,0,0,0-.1377-2.11573,1.62531,1.62531,0,0,0-.73437-.86377,3.03752,3.03752,0,0,0-1.667-.38867h-.75976v-.63916h12.22754v.63916H535.798a3.05783,3.05783,0,0,0-1.6582.36279,1.65878,1.65878,0,0,0-.71582.87207,8.57312,8.57312,0,0,0-.16406,2.13331v15.40576a9.72893,9.72893,0,0,0,.13769,2.11572,1.61847,1.61847,0,0,0,.73438.86328,3.03148,3.03148,0,0,0,1.666.38867Z"/>
      <path class="cls-6" d="M538.73454,182.83755v-.63916h10.67383v.63916h-.415a1.88506,1.88506,0,0,0-1.69238.63916,5.73077,5.73077,0,0,0-.41406,2.71143V202.026q0,1.46776.35351,1.77a3.627,3.627,0,0,0,1.92579.30224h2.17675q2.05371,0,2.28809-.33642a3.82405,3.82405,0,0,0,.2334-1.73584V186.18814a5.72729,5.72729,0,0,0-.415-2.71143,1.90642,1.90642,0,0,0-1.71-.63916h-.39649v-.63916h10.67285v.63916h-.41406a1.89679,1.89679,0,0,0-1.69238.63037,5.722,5.722,0,0,0-.415,2.72022v15.458a6.6548,6.6548,0,0,0,.18164,2.08106q.18164.37134,2.09863.37109h2.7461q1.60547,0,1.77832-.42285a5.9473,5.9473,0,0,0,.17285-1.82226v-15.665a5.74288,5.74288,0,0,0-.41406-2.69434,1.88259,1.88259,0,0,0-1.71-.65625h-.39746v-.63916h10.65625v.63916h-.39747a1.89369,1.89369,0,0,0-1.71.648,5.74631,5.74631,0,0,0-.41406,2.70264v15.458a6.43948,6.43948,0,0,0,.36231,2.65088q.36327.68262,1.76171.68213h.39747v.63916H538.73454v-.63916h.39747q1.5703,0,1.84765-.8374a9.61035,9.61035,0,0,0,.27637-2.73779V186.18814a5.6205,5.6205,0,0,0-.42285-2.72022,1.92329,1.92329,0,0,0-1.70117-.63037Z"/>
      <path class="cls-6" d="M601.44646,182.83755a3.44864,3.44864,0,0,0-2.45313.60449,3.39364,3.39364,0,0,0-.55273,2.24512v16.28711a3.61747,3.61747,0,0,0,.55273,2.418,3.96906,3.96906,0,0,0,2.53907.58691v.63916H589.71892v-.63916a5.93886,5.93886,0,0,0,1.99512-.23291,1.5243,1.5243,0,0,0,.83691-.76855,4.82066,4.82066,0,0,0,.25977-1.8999V183.71841h-5.63086v6.99512q0,4.38647-.21582,6.68359a12.95015,12.95015,0,0,1-1.19141,4.36084,7.46452,7.46452,0,0,1-2.51269,3.10059,5.95739,5.95739,0,0,1-3.40332,1.03613,3.65154,3.65154,0,0,1-2.625-.88965,2.92242,2.92242,0,0,1-.93262-2.20215,2.7382,2.7382,0,0,1,.57031-1.78711,1.99415,1.99415,0,0,1,1.64063-.6997q1.98631,0,2.19335,2.46972.08643,1.10523.86329,1.10547a3.29,3.29,0,0,0,2.31445-1.45947,8.05586,8.05586,0,0,0,1.624-4.01563,51.84271,51.84271,0,0,0,.39649-7.40918V186.5856a8.68265,8.68265,0,0,0-.23242-2.51319,1.563,1.563,0,0,0-.89844-.915,7.1325,7.1325,0,0,0-2.375-.31983v-.63916h19.05078Z"/>
      <path class="cls-6" d="M612.08513,183.54556v9.53369h.46582a3.6983,3.6983,0,0,0,3.22949-1.39893,8.606,8.606,0,0,0,1.27832-4.12744h.65625v12.26221h-.65625a9.17,9.17,0,0,0-.87207-3.28125,3.76354,3.76354,0,0,0-1.5459-1.71875,5.87729,5.87729,0,0,0-2.55566-.44043v6.59766a9.46631,9.46631,0,0,0,.16406,2.36621,1.42,1.42,0,0,0,.61231.708,2.87683,2.87683,0,0,0,1.45117.27636h1.39941a7.54932,7.54932,0,0,0,8.09961-6.14843h.63965l-1.05371,7.44384H603.15544v-.63916h.77735a3.2315,3.2315,0,0,0,1.64062-.36279,1.57227,1.57227,0,0,0,.69141-.82861,7.14759,7.14759,0,0,0,.18945-2.17627V186.20572a12.29074,12.29074,0,0,0-.08594-1.95167,1.64981,1.64981,0,0,0-.63964-.93261,2.97,2.97,0,0,0-1.7959-.48389h-.77735v-.63916H622.758v6.92578h-.65625a8.445,8.445,0,0,0-1.40722-3.644,5.23439,5.23439,0,0,0-2.56446-1.62354,13.90528,13.90528,0,0,0-3.62695-.311Z"/>
      <path class="cls-6" d="M635.71208,194.35757v7.25391a7.40087,7.40087,0,0,0,.19825,2.24511,1.78244,1.78244,0,0,0,.77734.78614,3.10958,3.10958,0,0,0,1.56348.33642h.77734v.63916H626.7824v-.63916h.77734a3.23154,3.23154,0,0,0,1.64063-.36279,1.568,1.568,0,0,0,.6914-.82861,7.114,7.114,0,0,0,.18945-2.17627V186.20572a7.70053,7.70053,0,0,0-.18945-2.24561,1.72941,1.72941,0,0,0-.76855-.78564,3.10414,3.10414,0,0,0-1.56348-.33692h-.77734v-.63916h12.24609v.63916h-.77734a3.23658,3.23658,0,0,0-1.64063.36279,1.64477,1.64477,0,0,0-.708.82911,7.09889,7.09889,0,0,0-.19043,2.17627v6.63183h8.27246v-6.63183a7.737,7.737,0,0,0-.18945-2.24561,1.72378,1.72378,0,0,0-.77734-.78564,3.15113,3.15113,0,0,0-1.57129-.33692h-.76074v-.63916h12.22851v.63916h-.75976a3.17756,3.17756,0,0,0-1.64063.36279,1.64477,1.64477,0,0,0-.708.82911,7.09889,7.09889,0,0,0-.19043,2.17627v15.40576a7.68027,7.68027,0,0,0,.19043,2.24511,1.715,1.715,0,0,0,.77637.78614,3.16073,3.16073,0,0,0,1.57227.33642h.75976v.63916H640.68572v-.63916h.76074a3.17749,3.17749,0,0,0,1.64062-.36279,1.65057,1.65057,0,0,0,.708-.82861,7.14725,7.14725,0,0,0,.18945-2.17627v-7.25391Z"/>
      <path class="cls-6" d="M663.22478,194.35757v7.25391a7.40134,7.40134,0,0,0,.19824,2.24511,1.78242,1.78242,0,0,0,.77735.78614,3.10954,3.10954,0,0,0,1.56347.33642h.77735v.63916h-12.2461v-.63916h.77735a3.2315,3.2315,0,0,0,1.64062-.36279,1.568,1.568,0,0,0,.69141-.82861,7.114,7.114,0,0,0,.18945-2.17627V186.20572a7.70053,7.70053,0,0,0-.18945-2.24561,1.72949,1.72949,0,0,0-.76856-.78564,3.10408,3.10408,0,0,0-1.56347-.33692h-.77735v-.63916h12.2461v.63916h-.77735a3.23654,3.23654,0,0,0-1.64062.36279,1.64468,1.64468,0,0,0-.708.82911,7.09889,7.09889,0,0,0-.19043,2.17627v6.63183h8.27246v-6.63183a7.73737,7.73737,0,0,0-.18945-2.24561,1.72385,1.72385,0,0,0-.77735-.78564,3.15113,3.15113,0,0,0-1.57129-.33692h-.76074v-.63916h12.22852v.63916h-.75977a3.17752,3.17752,0,0,0-1.64062.36279,1.64468,1.64468,0,0,0-.708.82911,7.09889,7.09889,0,0,0-.19043,2.17627v15.40576a7.68027,7.68027,0,0,0,.19043,2.24511,1.71493,1.71493,0,0,0,.77637.78614,3.16068,3.16068,0,0,0,1.57226.33642h.75977v.63916H668.19841v-.63916h.76074a3.17753,3.17753,0,0,0,1.64063-.36279,1.65057,1.65057,0,0,0,.708-.82861,7.14759,7.14759,0,0,0,.18945-2.17627v-7.25391Z"/>
      <path class="cls-6" d="M695.78142,198.95181H687.509l-.98438,2.27978a5.06039,5.06039,0,0,0-.48437,1.88233,1.5647,1.5647,0,0,0,.79492,1.45068,6.66092,6.66092,0,0,0,2.29688.41455v.63916h-7.78907v-.63916a3.48006,3.48006,0,0,0,2.07227-1.04492,13.90083,13.90083,0,0,0,2.00391-3.53174l8.376-18.6875h.32813l8.44629,19.20557a11.679,11.679,0,0,0,1.98632,3.437,2.70532,2.70532,0,0,0,1.65723.62158v.63916H694.884v-.63916h.46582a3.54679,3.54679,0,0,0,1.917-.37988.92335.92335,0,0,0,.37988-.79443,2.11041,2.11041,0,0,0-.10351-.63916q-.03516-.15528-.51758-1.29541Zm-.58691-1.27832-3.48926-8.06543-3.5918,8.06543Z"/>
      <path class="cls-6" d="M721.11833,194.94448l-7.54785,10.67383h-7.374v-.63916a2.92561,2.92561,0,0,0,1.64062-.58691,12.03851,12.03851,0,0,0,1.57129-1.91748l5.63086-7.92725a7.71062,7.71062,0,0,1-3.334-1.60644,5.53382,5.53382,0,0,1-1.86524-4.28321,5.81582,5.81582,0,0,1,1.24414-3.70459,6.26552,6.26552,0,0,1,3.21192-2.16748,23.7651,23.7651,0,0,1,6.21777-.5874H731.3947v.63916a5.53446,5.53446,0,0,0-2.19336.29346,1.70754,1.70754,0,0,0-.82031.78613,7.24754,7.24754,0,0,0-.2334,2.39209V201.508a7.15686,7.15686,0,0,0,.2334,2.3833,1.76123,1.76123,0,0,0,.81152.78565,5.37457,5.37457,0,0,0,2.20215.30224v.63916H719.40837v-.63916a5.52531,5.52531,0,0,0,2.19336-.29345,1.70455,1.70455,0,0,0,.82031-.78565,7.24927,7.24927,0,0,0,.2334-2.39209v-6.56348Zm-.31054-11.48486a4.54779,4.54779,0,0,0-5.28516,5.23291,5.81327,5.81327,0,0,0,.68164,2.99658,3.58145,3.58145,0,0,0,1.874,1.58887,11.01382,11.01382,0,0,0,3.59278.44043h.98437V183.45962Z"/>
      <path class="cls-6" d="M223.05193,248.06411v-.63867h.74316q1.70948,0,2.124-.72558a5.896,5.896,0,0,0,.41406-2.66016V226.16421h-8.27246V244.0397q0,2.26318.55273,2.82422a2.90847,2.90847,0,0,0,2.07227.56152h.708v.63867H209.14861v-.63867h.74316a2.657,2.657,0,0,0,2.03809-.58691,4.94326,4.94326,0,0,0,.5-2.79883V228.65152a5.2242,5.2242,0,0,0-.46582-2.729q-.46582-.63867-2.07227-.63916h-.74316v-.63916h26.13183v.63916h-.62207a2.72263,2.72263,0,0,0-2.17675.65625,4.79171,4.79171,0,0,0-.51758,2.71192V244.0397q0,2.26318.58691,2.82422a3.18172,3.18172,0,0,0,2.17676.56152h.55273v.63867Z"/>
      <path class="cls-6" d="M250.66814,241.3981h-8.27246l-.98438,2.27929a5.06025,5.06025,0,0,0-.48437,1.88282,1.56392,1.56392,0,0,0,.79492,1.45019,6.65705,6.65705,0,0,0,2.29687.415v.63867h-7.78906v-.63867a3.48276,3.48276,0,0,0,2.07227-1.04492,13.90615,13.90615,0,0,0,2.0039-3.53223l8.376-18.6875h.32813l8.44628,19.20606a11.66733,11.66733,0,0,0,1.98633,3.43652,2.70552,2.70552,0,0,0,1.65723.62207v.63867h-11.3291v-.63867h.46582a3.55137,3.55137,0,0,0,1.917-.37988.92424.92424,0,0,0,.37988-.79492,2.10741,2.10741,0,0,0-.10351-.63867q-.03516-.15528-.51758-1.2959Zm-.58692-1.27832-3.48925-8.06543-3.5918,8.06543Z"/>
      <path class="cls-6" d="M286.85173,225.28335a3.44859,3.44859,0,0,0-2.45312.60449,3.39358,3.39358,0,0,0-.55274,2.24512v16.2876a3.61831,3.61831,0,0,0,.55274,2.418,3.97535,3.97535,0,0,0,2.53906.58691v.63867H275.12419v-.63867a5.93574,5.93574,0,0,0,1.99512-.2334,1.52084,1.52084,0,0,0,.83691-.76855,4.81764,4.81764,0,0,0,.25977-1.89942V226.16421h-5.63086v6.99561q0,4.38573-.21582,6.68359a12.94722,12.94722,0,0,1-1.19141,4.36035,7.45827,7.45827,0,0,1-2.51269,3.10059,5.95377,5.95377,0,0,1-3.40332,1.03613,3.6494,3.6494,0,0,1-2.625-.88965,2.92167,2.92167,0,0,1-.93262-2.20215,2.74,2.74,0,0,1,.57031-1.78711,1.99524,1.99524,0,0,1,1.64063-.69921q1.98633,0,2.19336,2.46972.08643,1.1045.86328,1.10547a3.28929,3.28929,0,0,0,2.31445-1.46,8.05586,8.05586,0,0,0,1.624-4.01562,51.84,51.84,0,0,0,.39648-7.40918V229.0314a8.68257,8.68257,0,0,0-.23242-2.51318,1.563,1.563,0,0,0-.89844-.915,7.13246,7.13246,0,0,0-2.375-.31983v-.63916h19.05078Z"/>
      <path class="cls-6" d="M302.56853,241.3981h-8.27246l-.98438,2.27929a5.06025,5.06025,0,0,0-.48437,1.88282,1.56392,1.56392,0,0,0,.79492,1.45019,6.65707,6.65707,0,0,0,2.29688.415v.63867h-7.78907v-.63867a3.48276,3.48276,0,0,0,2.07227-1.04492,13.90615,13.90615,0,0,0,2.0039-3.53223l8.376-18.6875h.32813l8.44629,19.20606a11.66715,11.66715,0,0,0,1.98632,3.43652,2.70552,2.70552,0,0,0,1.65723.62207v.63867h-11.3291v-.63867h.46582a3.55137,3.55137,0,0,0,1.917-.37988.92424.92424,0,0,0,.37988-.79492,2.10741,2.10741,0,0,0-.10351-.63867q-.03516-.15528-.51758-1.2959Zm-.58691-1.27832-3.48926-8.06543-3.5918,8.06543Z"/>
      <path class="cls-6" d="M332.60271,224.64419v6.33887h-.62207a10.02415,10.02415,0,0,0-1.22559-3.15234,4.72533,4.72533,0,0,0-1.84863-1.52833,5.91914,5.91914,0,0,0-2.29688-.311H324.8654v18.06592a7.36277,7.36277,0,0,0,.19825,2.24511,1.78244,1.78244,0,0,0,.77734.78614,3.14181,3.14181,0,0,0,1.58008.33691h.77734v.63867H315.93572v-.63867h.77734a3.23134,3.23134,0,0,0,1.64063-.36328,1.64271,1.64271,0,0,0,.708-.82812,7.1027,7.1027,0,0,0,.19043-2.17676V225.99136h-1.69238a4.92515,4.92515,0,0,0-3.4375,1.002,6.6228,6.6228,0,0,0-1.89941,3.98975h-.65625v-6.33887Z"/>
      <path class="cls-6" d="M346.83415,241.3981h-8.27246l-.98437,2.27929a5.06029,5.06029,0,0,0-.48438,1.88282,1.56393,1.56393,0,0,0,.79493,1.45019,6.657,6.657,0,0,0,2.29687.415v.63867h-7.78906v-.63867a3.48273,3.48273,0,0,0,2.07226-1.04492,13.90579,13.90579,0,0,0,2.00391-3.53223l8.376-18.6875h.32812l8.44629,19.20606a11.66688,11.66688,0,0,0,1.98633,3.43652,2.70549,2.70549,0,0,0,1.65722.62207v.63867h-11.3291v-.63867h.46582a3.55144,3.55144,0,0,0,1.917-.37988.92424.92424,0,0,0,.37988-.79492,2.10712,2.10712,0,0,0-.10352-.63867q-.03515-.15528-.51758-1.2959Zm-.58691-1.27832-3.48926-8.06543-3.59179,8.06543Z"/>
      <path class="cls-6" d="M376.05681,237.45962v6.49414a7.25532,7.25532,0,0,0,.2334,2.39258,1.69732,1.69732,0,0,0,.8291.78516,5.52129,5.52129,0,0,0,2.18457.29394v.63867H367.40447v-.63867a5.367,5.367,0,0,0,2.20215-.30273,1.765,1.765,0,0,0,.81152-.78516,7.16053,7.16053,0,0,0,.2334-2.38379V228.755a7.24754,7.24754,0,0,0-.2334-2.39209,1.71185,1.71185,0,0,0-.82031-.78613,5.53779,5.53779,0,0,0-2.19336-.29346v-.63916h10.207q5.04345,0,7.23633,1.79639a5.57619,5.57619,0,0,1,2.19336,4.49072,5.73541,5.73541,0,0,1-1.416,3.90332,7.20584,7.20584,0,0,1-3.90332,2.21094A26.675,26.675,0,0,1,376.05681,237.45962Zm0-11.46826v10.12158c.37988.02344.668.03418.86328.03418a4.16616,4.16616,0,0,0,3.24707-1.25195,5.618,5.618,0,0,0,1.14063-3.87793,5.41911,5.41911,0,0,0-1.14063-3.8169,4.46009,4.46009,0,0,0-3.40234-1.209Z"/>
      <path class="cls-6" d="M396.6447,224.64419h12.10645v.63916a4.53659,4.53659,0,0,0-2.55567.50977,3.26134,3.26134,0,0,0-.67383,2.16748,15.55615,15.55615,0,0,1,6.04493.915,9.332,9.332,0,0,1,3.5498,2.76367,6.96968,6.96968,0,0,1,1.47656,4.49023,8.183,8.183,0,0,1-2.45312,5.85547q-2.45216,2.53857-8.61817,2.53906a4.2266,4.2266,0,0,0,.28516,1.7959,1.55168,1.55168,0,0,0,.83789.78614,8.30118,8.30118,0,0,0,2.10645.31933v.63867H396.6447v-.63867q2.14161-.05127,2.69434-.665a3.396,3.396,0,0,0,.55273-2.23633,14.62232,14.62232,0,0,1-6.38183-1.14062,8.43857,8.43857,0,0,1-3.50586-3.03906,7.725,7.725,0,0,1-1.20118-4.21485,7.56849,7.56849,0,0,1,1.46875-4.51562,7.69177,7.69177,0,0,1,3.69532-2.85059,17.90336,17.90336,0,0,1,5.9248-.80273,2.7159,2.7159,0,0,0-.63086-2.10742,4.48548,4.48548,0,0,0-2.61621-.56983Zm3.24707,4.59424a5.84826,5.84826,0,0,0-3.24707.80322,4.83571,4.83571,0,0,0-1.55469,2.30567,11.98541,11.98541,0,0,0-.57031,4.02441,10.46312,10.46312,0,0,0,.69141,4.292,3.96192,3.96192,0,0,0,1.83886,2.02051,6.77591,6.77591,0,0,0,2.8418.56152Zm5.62988,14.00732a6.564,6.564,0,0,0,2.81543-.52636,4.08414,4.08414,0,0,0,1.83106-2.19434,11.75742,11.75742,0,0,0,.72461-4.585,10.32367,10.32367,0,0,0-.66406-3.9375,4.12513,4.12513,0,0,0-1.72754-2.17676,6.51584,6.51584,0,0,0-2.9795-.5874Z"/>
    </g>
  </g>
</svg>
