<svg width="29" height="29" viewBox="0 0 29 29" fill="none" xmlns="http://www.w3.org/2000/svg">
<g clip-path="url(#clip0)">
<path d="M24.754 4.24678C19.0913 -1.41528 9.9101 -1.41591 4.24678 4.24678C-1.41591 9.90947 -1.41528 19.0907 4.24678 24.754C9.90947 30.4154 19.0907 30.4161 24.754 24.754C30.4161 19.0907 30.4154 9.9101 24.754 4.24678ZM16.3911 20.8049C16.3911 21.8495 15.5444 22.6962 14.4998 22.6962C13.4551 22.6962 12.6084 21.8495 12.6084 20.8049V13.2395C12.6084 12.1948 13.4551 11.3482 14.4998 11.3482C15.5444 11.3482 16.3911 12.1948 16.3911 13.2395V20.8049ZM14.4663 10.0066C13.3769 10.0066 12.6507 9.23489 12.6734 8.28228C12.6507 7.28365 13.3769 6.53531 14.4884 6.53531C15.6005 6.53531 16.3041 7.28428 16.3274 8.28228C16.3268 9.23489 15.6012 10.0066 14.4663 10.0066Z" fill="white"/>
</g>
<defs>
<clipPath id="clip0">
<rect width="29" height="29" fill="white"/>
</clipPath>
</defs>
</svg>
