<svg width="38" height="27" viewBox="0 0 38 27" fill="none" xmlns="http://www.w3.org/2000/svg">
<g clip-path="url(#clip0)">
<path d="M20.428 6.85938H17.6856C17.3086 6.85938 17 7.16642 17 7.54495V19.8858C17 20.2642 17.3072 20.5713 17.6856 20.5713H20.428C20.8064 20.5713 21.1136 20.2641 21.1136 19.8858V7.54495C21.1136 7.16642 20.805 6.85938 20.428 6.85938Z" fill="white"/>
<path d="M36.2878 6.85797C36.1774 6.83927 31.0075 6.85797 31.0075 6.85797L31.7296 4.8879C32.2279 3.52725 31.9053 1.44968 30.5228 0.711067C30.0726 0.470551 29.4437 0.34976 28.9366 0.477401C28.6458 0.550573 28.3902 0.7431 28.2379 1.00105C28.0627 1.29771 28.0808 1.64401 28.0184 1.97296C27.8602 2.8073 27.466 3.60058 26.8555 4.19601C25.791 5.23416 22.4844 8.22912 22.4844 8.22912V19.1988H33.9111C35.4529 19.1997 36.4634 17.4778 35.7029 16.1329C36.6094 15.5523 36.9194 14.3294 36.3885 13.3905C37.2951 12.8099 37.6051 11.587 37.0742 10.6481C38.6382 9.64638 38.1153 7.16706 36.2878 6.85797Z" fill="white"/>
</g>
<g clip-path="url(#clip1)">
<path d="M17.572 20.1406L20.3144 20.1406C20.6914 20.1406 21 19.8336 21 19.455L21 7.1142C21 6.73583 20.6928 6.42871 20.3144 6.42871L17.572 6.42871C17.1936 6.42871 16.8864 6.73587 16.8864 7.1142L16.8864 19.455C16.8864 19.8336 17.195 20.1406 17.572 20.1406Z" fill="white"/>
<path d="M1.7122 20.142C1.82261 20.1607 6.99252 20.142 6.99252 20.142L6.2704 22.1121C5.77214 23.4728 6.09473 25.5503 7.47724 26.2889C7.92739 26.5294 8.55633 26.6502 9.0634 26.5226C9.3542 26.4494 9.60977 26.2569 9.76211 25.999C9.93728 25.7023 9.9192 25.356 9.98158 25.027C10.1398 24.1927 10.534 23.3994 11.1445 22.804C12.209 21.7658 15.5156 18.7709 15.5156 18.7709L15.5156 7.80123L4.08894 7.80123C2.54707 7.80032 1.53661 9.52216 2.29708 10.8671C1.39059 11.4477 1.08056 12.6706 1.61147 13.6095C0.704938 14.1901 0.394941 15.413 0.925848 16.3519C-0.638245 17.3536 -0.115336 19.8329 1.7122 20.142Z" fill="white"/>
</g>
<defs>
<clipPath id="clip0">
<rect width="21" height="21" fill="white" transform="translate(17)"/>
</clipPath>
<clipPath id="clip1">
<rect width="21" height="21" fill="white" transform="translate(21 27) rotate(-180)"/>
</clipPath>
</defs>
</svg>
