<svg width="31" height="31" viewBox="0 0 31 31" fill="none" xmlns="http://www.w3.org/2000/svg">
<g clip-path="url(#clip0)">
<path d="M2.10156 23.0806V28.1056C2.10156 28.4113 2.34995 28.6661 2.66202 28.6661H6.54704C6.85275 28.6661 7.1075 28.4177 7.1075 28.1056V19.2656L4.28609 22.087C3.68741 22.6793 2.92315 23.0233 2.10156 23.0806Z" fill="white"/>
<path d="M9.04492 19.1992V28.1029C9.04492 28.4086 9.29331 28.6634 9.60538 28.6634H13.4904C13.7961 28.6634 14.0509 28.415 14.0509 28.1029V22.8613C13.1656 22.8422 12.3376 22.4919 11.7135 21.8678L9.04492 19.1992Z" fill="white"/>
<path d="M15.9863 22.3078V28.1035C15.9863 28.4092 16.2347 28.6639 16.5468 28.6639H20.4318C20.7375 28.6639 20.9923 28.4156 20.9923 28.1035V17.4102L16.5404 21.862C16.3685 22.034 16.1838 22.1804 15.9863 22.3078Z" fill="white"/>
<path d="M27.5579 10.8398L22.9277 15.47V28.1059C22.9277 28.4116 23.1761 28.6663 23.4882 28.6663H27.3732C27.6789 28.6663 27.9337 28.4179 27.9337 28.1059V11.1901C27.8063 11.0819 27.7108 10.9863 27.6407 10.9226L27.5579 10.8398Z" fill="white"/>
<path d="M30.7362 2.63527C30.5515 2.43784 30.2713 2.33594 29.9146 2.33594C29.8828 2.33594 29.8446 2.33594 29.8127 2.33594C28.004 2.41873 26.2016 2.5079 24.3928 2.59069C24.1508 2.60343 23.8196 2.61617 23.5585 2.87729C23.4757 2.96009 23.412 3.05562 23.361 3.17026C23.0935 3.74983 23.4693 4.12559 23.6476 4.30392L24.0998 4.76248C24.4119 5.08092 24.7304 5.39937 25.0488 5.71144L14.1198 16.6468L9.2094 11.7364C8.91643 11.4434 8.52156 11.2778 8.10121 11.2778C7.68087 11.2778 7.29237 11.4434 6.9994 11.7364L0.458559 18.2709C-0.152853 18.8823 -0.152853 19.8695 0.458559 20.4809L0.751528 20.7738C1.0445 21.0668 1.43937 21.2324 1.85971 21.2324C2.28006 21.2324 2.66856 21.0668 2.96153 20.7738L8.10121 15.6342L13.0116 20.5446C13.3046 20.8375 13.6995 21.0031 14.1198 21.0031C14.5401 21.0031 14.9286 20.8375 15.228 20.5446L27.5581 8.21441L28.9529 9.60282C29.1185 9.76842 29.3478 9.99769 29.6981 9.99769C29.8446 9.99769 29.991 9.95948 30.1439 9.87669C30.2458 9.81937 30.335 9.75568 30.4114 9.67925C30.6853 9.40539 30.7362 9.0551 30.7489 8.78124C30.7999 7.60937 30.8572 6.43749 30.9145 5.25925L30.9973 3.49507C31.0164 3.12568 30.9336 2.83908 30.7362 2.63527Z" fill="white"/>
</g>
<defs>
<clipPath id="clip0">
<rect width="31" height="31" fill="white"/>
</clipPath>
</defs>
</svg>
