<svg width="33" height="33" viewBox="0 0 33 33" fill="none" xmlns="http://www.w3.org/2000/svg">
<path d="M29.37 13.695C29.04 12.21 28.38 10.725 27.555 9.405L29.205 5.94L26.895 3.63L23.43 5.28C22.11 4.455 20.79 3.96 19.305 3.63L18.15 0H14.85L13.53 3.63C12.045 3.96 10.725 4.62 9.405 5.445L5.94 3.795L3.63 5.94L5.28 9.405C4.455 10.725 3.96 12.045 3.63 13.53L0 14.85V18.15L3.63 19.47C3.96 20.955 4.62 22.44 5.28 23.595L3.63 27.06L5.94 29.37L9.405 27.72C10.725 28.545 12.045 29.205 13.53 29.535L14.85 33H18.15L19.47 29.37C19.965 29.205 20.625 29.04 21.12 28.875L18.48 26.235C12.21 27.39 6.6 22.77 6.6 16.5C6.6 11.055 11.055 6.6 16.5 6.6C22.605 6.6 27.225 12.045 26.235 17.82L29.04 20.625C29.205 20.13 29.37 19.8 29.37 19.305L33 18.15V14.85L29.37 13.695Z" fill="white"/>
<path d="M32.341 28.7108L22.606 18.9758C24.916 13.8608 20.131 8.41578 14.851 9.90078L17.821 12.8708C19.141 14.1908 19.141 16.3358 17.821 17.4908C16.666 18.8108 14.356 18.8108 13.201 17.4908L10.231 14.6858C8.74596 19.3058 13.531 24.5858 18.976 22.4408L28.711 32.1758C29.701 33.1658 31.186 33.1658 32.176 32.1758C33.166 31.3508 33.166 29.7008 32.341 28.7108Z" fill="white"/>
</svg>
